<?xml version="1.0" encoding="UTF-8"?>
<svg version="1.1" xmlns="http://www.w3.org/2000/svg" width="405" height="355">
<path d="M0 0 C-0.00785522 -0.99181274 -0.00785522 -0.99181274 -0.01586914 -2.00366211 C-0.03657656 -4.98159851 -0.04964012 -7.95951982 -0.0625 -10.9375 C-0.07087891 -11.97841797 -0.07925781 -13.01933594 -0.08789062 -14.09179688 C-0.09272461 -15.57583008 -0.09272461 -15.57583008 -0.09765625 -17.08984375 C-0.10551147 -18.46450806 -0.10551147 -18.46450806 -0.11352539 -19.86694336 C0 -22 0 -22 1 -23 C2.64340867 -23.09854655 4.2911461 -23.12972411 5.9375 -23.125 C6.83339844 -23.12757812 7.72929687 -23.13015625 8.65234375 -23.1328125 C11 -23 11 -23 13 -22 C12.99363525 -20.97640381 12.98727051 -19.95280762 12.98071289 -18.89819336 C12.96620693 -15.07517659 12.99775118 -11.25364963 13.04272461 -7.4309082 C13.0558084 -5.78122037 13.05664988 -4.13138572 13.04467773 -2.48168945 C12.68489531 6.83931659 12.68489531 6.83931659 15.44702148 15.46777344 C17.20093052 17.19009549 19.00193156 18.57493641 21 20 C49.9513318 51.76313341 59.47847891 93.25761197 58 135 C56.3320205 160.78116144 47.0165419 184.90090316 33.27734375 206.625 C31.93538473 209.12014094 31.49496609 211.2298005 31 214 C31.82201904 213.98952637 32.64403809 213.97905273 33.4909668 213.96826172 C37.22311331 213.92663241 40.9552109 213.90065147 44.6875 213.875 C45.98107422 213.85824219 47.27464844 213.84148437 48.60742188 213.82421875 C49.85458984 213.81777344 51.10175781 213.81132812 52.38671875 213.8046875 C54.10701294 213.78897705 54.10701294 213.78897705 55.86206055 213.77294922 C58.99191655 213.99941511 61.18079905 214.66543968 64 216 C64.02892857 219.95831809 64.04677427 223.91660917 64.0625 227.875 C64.07087891 229.00292969 64.07925781 230.13085938 64.08789062 231.29296875 C64.09272461 232.90751953 64.09272461 232.90751953 64.09765625 234.5546875 C64.10551147 236.04718018 64.10551147 236.04718018 64.11352539 237.56982422 C64 240 64 240 63 242 C62.23737854 241.9800145 61.47475708 241.96002899 60.68902588 241.93943787 C53.45260868 241.75805303 46.21731439 241.62156211 38.97920609 241.53369045 C35.25906579 241.48699144 31.54082466 241.42381173 27.82177734 241.32104492 C24.22299727 241.2222397 20.62602642 241.16923794 17.02599335 241.14610481 C15.00502208 241.12171994 12.98476548 241.05162144 10.96490479 240.98033142 C0.6311789 240.97475808 -4.51715798 244.39193696 -12 251 C-30.914809 264.12065047 -53.49592274 270.67209612 -76 274 C-76.86496094 274.13277344 -77.72992188 274.26554687 -78.62109375 274.40234375 C-111.97672267 278.62237999 -150.15482194 270.16463808 -178 251 C-179.03988837 250.09243322 -180.0625017 249.16470233 -181.06713867 248.21826172 C-192.3051692 237.97225732 -203.59837847 238.53930041 -218.1875 238.875 C-221.52976797 238.89825224 -224.87185208 238.90617791 -228.21418762 238.91360474 C-230.27686485 238.92395924 -232.33953477 238.94634171 -234.40190125 238.98361206 C-241.25030503 239.09557507 -248.23309245 239.16804645 -255 238 C-257 236 -257 236 -257.18286133 233.6015625 C-257.07440922 230.39999324 -256.95812795 227.20012811 -256.8125 224 C-256.78091797 222.88109375 -256.74933594 221.7621875 -256.71679688 220.609375 C-256.67232422 219.54203125 -256.62785156 218.4746875 -256.58203125 217.375 C-256.54311768 216.39273438 -256.5042041 215.41046875 -256.46411133 214.3984375 C-256.31095459 213.60695313 -256.15779785 212.81546875 -256 212 C-252.40555817 209.60370545 -249.85138348 209.74218669 -245.70703125 209.8046875 C-245.00100266 209.8075174 -244.29497406 209.81034729 -243.56755066 209.81326294 C-241.31569367 209.82444536 -239.06423648 209.8495458 -236.8125 209.875 C-235.28451096 209.88503233 -233.75651567 209.89415774 -232.22851562 209.90234375 C-228.48552337 209.92437828 -224.74282944 209.95889433 -221 210 C-221.59844727 209.04424072 -222.19689453 208.08848145 -222.81347656 207.10375977 C-236.2848448 185.4963565 -244.95855499 163.32553522 -248 138 C-248.14308594 136.90816406 -248.28617188 135.81632813 -248.43359375 134.69140625 C-250.56159834 114.48849846 -247.73373661 94.22379439 -241.63256836 74.98046875 C-240.10032682 69.94672116 -239.57965381 65.48604757 -240.01953125 60.19921875 C-239.99563648 57.5086671 -239.61606989 56.15952702 -238 54 C-237.22011719 53.90203125 -236.44023437 53.8040625 -235.63671875 53.703125 C-232.64435708 53.21539918 -232.64435708 53.21539918 -230.89453125 49.859375 C-230.1873962 48.49631239 -229.49418594 47.12596655 -228.8125 45.75 C-222.02295171 32.9262514 -212.9634457 22.46396417 -203 12 C-202.35417969 11.31292969 -201.70835937 10.62585938 -201.04296875 9.91796875 C-199.74155573 8.56589245 -198.37896319 7.2728891 -197 6 C-196.34 6 -195.68 6 -195 6 C-195 5.34 -195 4.68 -195 4 C-192.87212733 2.21148634 -190.74810732 0.56384348 -188.5 -1.0625 C-187.82727051 -1.55129639 -187.15454102 -2.04009277 -186.46142578 -2.54370117 C-129.92224882 -42.82508425 -55.40792361 -41.18290911 0 0 Z M0 101 C0.28983269 104.30683466 0.28983269 104.30683466 2 107 C4.5 107.16666667 4.5 107.16666667 7 107 C8.34404775 105.88163776 8.34404775 105.88163776 8.125 103 C8.34404775 100.11836224 8.34404775 100.11836224 7 99 C3.038832 98.60909667 3.038832 98.60909667 0 101 Z M-90 104 C-93.4624507 108.18379459 -94.12534332 111.39287833 -94.20532227 116.74633789 C-94.22526749 117.92929947 -94.24521271 119.11226105 -94.26576233 120.33106995 C-94.28247482 121.61529343 -94.29918732 122.89951691 -94.31640625 124.22265625 C-94.33702186 125.56530835 -94.35801938 126.90795463 -94.37937927 128.25059509 C-94.42336619 131.07596481 -94.46425368 133.90135597 -94.50268555 136.72680664 C-94.55122499 140.29375401 -94.60492812 143.86059693 -94.66063881 147.42743874 C-94.79358254 155.95142207 -94.90651075 164.47547983 -95 173 C-95.01133972 174.02260925 -95.02267944 175.04521851 -95.03436279 176.09881592 C-95.0596772 178.66875923 -95.07721109 181.23856104 -95.08984375 183.80859375 C-95.09657608 184.51943619 -95.10330841 185.23027863 -95.11024475 185.96266174 C-95.11455319 188.94002774 -94.95122895 191.14631316 -94 194 C-91.98491642 194.73323796 -91.98491642 194.73323796 -90 195 C-89.09515377 164.66117985 -88.87429363 134.35131981 -89 104 C-89.33 104 -89.66 104 -90 104 Z M-14 122 C-14.5 124.5 -14.5 124.5 -14 127 C-11.31328252 129.22738107 -11.31328252 129.22738107 -8.9375 128.875 C-6.42716583 127.7413007 -5.97308798 126.51381062 -5 124 C-6.28965176 122.62437146 -7.62689293 121.29233607 -9 120 C-11.32357511 119.81509993 -11.32357511 119.81509993 -14 122 Z M-166 125 C-166.99 125.66 -167.98 126.32 -169 127 C-169.44674325 129.72540973 -169.44674325 129.72540973 -169.35644531 132.96264648 C-169.35944641 134.21411972 -169.36244751 135.46559296 -169.36553955 136.75498962 C-169.35353213 138.12702847 -169.34104905 139.49906323 -169.328125 140.87109375 C-169.32506767 142.27352191 -169.32319135 143.6759531 -169.32244873 145.0783844 C-169.31784218 148.0199035 -169.30340508 150.96114937 -169.28125 153.90258789 C-169.25299333 157.67332858 -169.24204139 161.44385371 -169.2375679 165.21469021 C-169.23341016 168.11174172 -169.22358929 171.00874964 -169.21169281 173.90577888 C-169.20599436 175.29604812 -169.20123425 176.68632152 -169.19742584 178.07659721 C-169.19054958 180.02040995 -169.1760176 181.96419107 -169.16113281 183.90795898 C-169.15430481 185.01445297 -169.14747681 186.12094696 -169.14044189 187.26097107 C-169.11756065 190.0927074 -169.11756065 190.0927074 -168 193 C-167.01 193.33 -166.02 193.66 -165 194 C-163.68572494 187.01933491 -163.87418645 180.05480747 -163.90234375 172.97265625 C-163.9042116 171.61502637 -163.90563377 170.25739581 -163.90663147 168.89976501 C-163.91042778 165.34717916 -163.92023304 161.79463496 -163.93133545 158.24206543 C-163.94161199 154.60864831 -163.9461424 150.97522438 -163.95117188 147.34179688 C-163.96185823 140.22784767 -163.97889951 133.11392657 -164 126 C-164.66 125.67 -165.32 125.34 -166 125 Z M5 134 C3.80161791 136.32854463 3.80161791 136.32854463 3 139 C3.99 140.485 3.99 140.485 5 142 C7.5 142.41666667 7.5 142.41666667 10 142 C10.66 141.34 11.32 140.68 12 140 C11.71016731 136.69316534 11.71016731 136.69316534 10 134 C8.33382885 133.95936168 6.66611905 133.957279 5 134 Z " fill="#98DBF3" transform="translate(299,67)"/>
<path d="M0 0 C0.33 0 0.66 0 1 0 C1.03153929 10.99998866 1.05129438 21.99997298 1.0625 33 C1.06378403 34.25128441 1.06378403 34.25128441 1.06509399 35.52784729 C1.09075281 63.93849046 0.88120034 92.34198927 0.5 120.75 C0.48206327 122.08735199 0.48206327 122.08735199 0.46376419 123.45172119 C0.31749774 134.30127121 0.16307656 145.15068972 0 156 C1.02802734 155.99476318 2.05605469 155.98952637 3.11523438 155.98413086 C27.13379604 155.87459894 51.14933616 155.99542995 75.16577148 156.31838989 C78.05457325 156.35707684 80.94337416 156.39125898 83.83227539 156.42160034 C87.91964133 156.46498629 92.00661378 156.52459418 96.09375 156.5859375 C97.32520752 156.59749374 98.55666504 156.60904999 99.82543945 156.62095642 C100.96263428 156.64082108 102.0998291 156.66068573 103.27148438 156.68115234 C104.26160522 156.69447601 105.25172607 156.70779968 106.27185059 156.7215271 C109.16560266 157.01690371 111.3657065 157.79466097 114 159 C114.02892857 162.95831809 114.04677427 166.91660917 114.0625 170.875 C114.07087891 172.00292969 114.07925781 173.13085938 114.08789062 174.29296875 C114.09272461 175.90751953 114.09272461 175.90751953 114.09765625 177.5546875 C114.10551147 179.04718018 114.10551147 179.04718018 114.11352539 180.56982422 C114 183 114 183 113 185 C112.23737854 184.9800145 111.47475708 184.96002899 110.68902588 184.93943787 C103.45260868 184.75805303 96.21731439 184.62156211 88.97920609 184.53369045 C85.25906579 184.48699144 81.54082466 184.42381173 77.82177734 184.32104492 C74.22299727 184.2222397 70.62602642 184.16923794 67.02599335 184.14610481 C65.00502208 184.12171994 62.98476548 184.05162144 60.96490479 183.98033142 C50.6311789 183.97475808 45.48284202 187.39193696 38 194 C19.085191 207.12065047 -3.49592274 213.67209612 -26 217 C-26.86496094 217.13277344 -27.72992188 217.26554688 -28.62109375 217.40234375 C-61.97672267 221.62237999 -100.15482194 213.16463808 -128 194 C-129.03988837 193.09243322 -130.0625017 192.16470233 -131.06713867 191.21826172 C-142.3051692 180.97225732 -153.59837847 181.53930041 -168.1875 181.875 C-171.52976797 181.89825224 -174.87185208 181.90617791 -178.21418762 181.91360474 C-180.27686485 181.92395924 -182.33953477 181.94634171 -184.40190125 181.98361206 C-191.25030503 182.09557507 -198.23309245 182.16804645 -205 181 C-207 179 -207 179 -207.18286133 176.6015625 C-207.07440922 173.39999324 -206.95812795 170.20012811 -206.8125 167 C-206.78091797 165.88109375 -206.74933594 164.7621875 -206.71679688 163.609375 C-206.67232422 162.54203125 -206.62785156 161.4746875 -206.58203125 160.375 C-206.54311768 159.39273438 -206.5042041 158.41046875 -206.46411133 157.3984375 C-206.31095459 156.60695313 -206.15779785 155.81546875 -206 155 C-202.40555817 152.60370545 -199.85138348 152.74218669 -195.70703125 152.8046875 C-195.00100266 152.8075174 -194.29497406 152.81034729 -193.56755066 152.81326294 C-191.31569367 152.82444536 -189.06423648 152.8495458 -186.8125 152.875 C-185.28451096 152.88503233 -183.75651567 152.89415774 -182.22851562 152.90234375 C-178.48552337 152.92437828 -174.74282944 152.95889433 -171 153 C-171.59844727 152.04424072 -172.19689453 151.08848145 -172.81347656 150.10375977 C-186.2848448 128.4963565 -194.95855499 106.32553522 -198 81 C-198.14308594 79.90816406 -198.28617188 78.81632812 -198.43359375 77.69140625 C-200.74938099 55.70572247 -197.41035919 32.76367971 -190 12 C-189.34 11.34 -188.68 10.68 -188 10 C-187.70609375 11.12921875 -187.70609375 11.12921875 -187.40625 12.28125 C-181.51254776 33.21405451 -171.07357349 49.06995953 -151.96582031 59.98388672 C-143.84434006 64.18180038 -134.87942927 66.10249195 -126 68 C-125.83789747 91.68442633 -126.29266013 115.3266892 -127 139 C-127.94359375 139.49628906 -128.8871875 139.99257813 -129.859375 140.50390625 C-131.1563202 141.18997147 -132.4531911 141.87617716 -133.75 142.5625 C-134.36488281 142.88541016 -134.97976562 143.20832031 -135.61328125 143.54101562 C-141.86212597 146.85479692 -147.87106687 150.42478901 -154 154 C-132.55 154 -111.1 154 -89 154 C-97.25 149.05 -105.5 144.1 -114 139 C-115.44412336 136.11175327 -115.0745168 133.66491554 -115.02172852 130.43896484 C-115.01212097 129.76567642 -115.00251343 129.092388 -114.99261475 128.3986969 C-114.95958733 126.16933863 -114.91926946 123.94017404 -114.87890625 121.7109375 C-114.85460878 120.16680589 -114.83076503 118.62266709 -114.80735779 117.07852173 C-114.74447971 113.01122851 -114.67542366 108.94406253 -114.60510254 104.87689209 C-114.53445268 100.72788292 -114.4696157 96.57878342 -114.40429688 92.4296875 C-114.27523655 84.28635833 -114.13965278 76.14315437 -114 68 C-113.05463379 67.80374023 -112.10926758 67.60748047 -111.13525391 67.40527344 C-109.88663574 67.14262695 -108.63801758 66.87998047 -107.3515625 66.609375 C-106.11744629 66.35124023 -104.88333008 66.09310547 -103.61181641 65.82714844 C-85.27009297 61.62667805 -70.86547713 51.21886366 -60 36 C-56.06278175 37.31240608 -54.63379674 39.12311251 -52.26123047 42.45556641 C-49.77581537 47.46969652 -50.35466244 52.71143204 -50.5625 58.1875 C-50.65285611 61.10265026 -50.73078565 64.01808519 -50.80859375 66.93359375 C-50.83393188 67.75159454 -50.85927002 68.56959534 -50.88537598 69.41238403 C-51.05377741 76.03650502 -50.87384983 82.61881029 -50.6179657 89.23921204 C-50.43751945 94.00988755 -50.34122701 98.781477 -50.26250553 103.55480862 C-50.20169607 106.98426857 -50.10205169 110.40310014 -49.91116333 113.82797241 C-48.75604163 135.28408452 -48.75604163 135.28408452 -54.18737793 141.50561523 C-61.09926013 147.06951625 -69.33692349 151.03700969 -78 153 C-78 153.66 -78 154.32 -78 155 C-57.21 155 -36.42 155 -15 155 C-20.28 151.7 -25.56 148.4 -31 145 C-39 140 -39 140 -42 138 C-41.34 138 -40.68 138 -40 138 C-40.02442673 136.87406433 -40.04885345 135.74812866 -40.07402039 134.58807373 C-40.29774427 123.93776803 -40.4622495 113.2879435 -40.56993389 102.63581467 C-40.62716083 97.16017916 -40.70467651 91.68645156 -40.82983398 86.21191406 C-40.9500295 80.92084489 -41.01526354 75.63160131 -41.04364967 70.33927155 C-41.06385681 68.32815069 -41.10331947 66.31712137 -41.16303062 64.30678558 C-41.6586049 46.91829176 -41.6586049 46.91829176 -36.21207142 40.53810501 C-33.93148502 38.21561838 -31.46696578 36.12108145 -29 34 C-27.44119193 32.17764289 -25.91387143 30.32726068 -24.4375 28.4375 C-20.63493901 23.71310605 -16.61067379 19.24930768 -12.50390625 14.7890625 C-9.10518671 11.0032813 -5.9075747 7.07864278 -2.71484375 3.1171875 C-1 1 -1 1 0 0 Z " fill="#E76696" transform="translate(249,124)"/>
<path d="M0 0 C-0.00523682 -0.6612085 -0.01047363 -1.32241699 -0.01586914 -2.00366211 C-0.03657656 -4.98159851 -0.04964012 -7.95951982 -0.0625 -10.9375 C-0.07087891 -11.97841797 -0.07925781 -13.01933594 -0.08789062 -14.09179688 C-0.09111328 -15.08115234 -0.09433594 -16.07050781 -0.09765625 -17.08984375 C-0.10289307 -18.00628662 -0.10812988 -18.92272949 -0.11352539 -19.86694336 C0 -22 0 -22 1 -23 C2.64340867 -23.09854655 4.2911461 -23.12972411 5.9375 -23.125 C6.83339844 -23.12757812 7.72929687 -23.13015625 8.65234375 -23.1328125 C11 -23 11 -23 13 -22 C12.99363525 -20.97640381 12.98727051 -19.95280762 12.98071289 -18.89819336 C12.96620693 -15.07517659 12.99775118 -11.25364963 13.04272461 -7.4309082 C13.0558084 -5.78122037 13.05664988 -4.13138572 13.04467773 -2.48168945 C12.68489531 6.83931659 12.68489531 6.83931659 15.44702148 15.46777344 C17.20093052 17.19009549 19.00193156 18.57493641 21 20 C49.9513318 51.76313341 59.47847891 93.25761197 58 135 C56.30424972 161.21040101 46.71555909 187.26417418 32 209 C31.67 209 31.34 209 31 209 C30.85105233 170.94336251 31.12291918 132.90330104 31.64428711 94.8503418 C31.84780068 79.93317733 32.04893889 65.01629367 32.09375 50.09765625 C32.1002356 48.96943954 32.10672119 47.84122284 32.11340332 46.67881775 C32.11400757 45.66856033 32.11461182 44.65830292 32.11523438 43.61743164 C32.11831604 42.30507286 32.11831604 42.30507286 32.12145996 40.96620178 C32.21762826 38.99690698 32.21762826 38.99690698 31 38 C29.17526151 37.88711253 27.34621653 37.84318698 25.51806641 37.82641602 C24.34660065 37.81292618 23.17513489 37.79943634 21.96817017 37.78553772 C20.69218964 37.77509933 19.41620911 37.76466095 18.1015625 37.75390625 C16.11398219 37.72940554 14.12640195 37.70489362 12.13883018 37.67970943 C7.21894372 37.61880664 2.29896115 37.56825997 -2.62109375 37.52319336 C-5.37668663 37.49756385 -8.13213158 37.46675494 -10.88760376 37.43040466 C-13.48840028 37.39648228 -16.08931627 37.37061483 -18.6902771 37.35340881 C-19.86804718 37.33676682 -21.04581726 37.32012482 -22.25927734 37.30297852 C-23.29772797 37.29267105 -24.33617859 37.28236359 -25.40609741 37.27174377 C-28 37 -28 37 -31 35 C-30.3503125 34.26394531 -29.700625 33.52789062 -29.03125 32.76953125 C-28.1959375 31.79371094 -27.360625 30.81789062 -26.5 29.8125 C-25.6646875 28.84957031 -24.829375 27.88664062 -23.96875 26.89453125 C-21.82095148 23.73675605 -21.80545352 22.66666073 -22 19 C-22.62653473 19.00222061 -23.25306946 19.00444122 -23.89859009 19.00672913 C-54.77008925 19.11057609 -85.6319571 19.05881859 -116.5 18.5625 C-117.78513489 18.54285187 -119.07026978 18.52320374 -120.39434814 18.50296021 C-135.61381958 18.26544218 -150.80138949 17.84195674 -166 17 C-166.25669656 21.78899529 -165.13079519 23.38001806 -162 27 C-162 27.66 -162 28.32 -162 29 C-161.34 29 -160.68 29 -160 29 C-158.21189 31.08913862 -156.53378097 33.18649831 -154.875 35.375 C-153.88727762 36.65928418 -152.89899187 37.94313526 -151.91015625 39.2265625 C-151.42047363 39.8649707 -150.93079102 40.50337891 -150.42626953 41.16113281 C-147.80982083 44.53447955 -145.08213739 47.81841486 -142.36328125 51.109375 C-141 53 -141 53 -141 55 C-150.94541265 55.0232884 -160.89081869 55.0409985 -170.83625317 55.05181217 C-175.45554259 55.05700518 -180.0748132 55.06403687 -184.6940918 55.07543945 C-189.16152948 55.08639676 -193.62894921 55.09230373 -198.09639931 55.09487724 C-199.7910115 55.09670855 -201.48562285 55.100284 -203.18022728 55.10573006 C-212.84573837 55.13552477 -222.37125698 54.94269236 -232 54 C-231.20761037 49.35758727 -229.43881909 45.85843845 -227 41.875 C-226.39768555 40.88367065 -226.39768555 40.88367065 -225.78320312 39.87231445 C-222.02012447 33.81014737 -217.72063766 28.34951154 -213 23 C-212.23429687 22.12472656 -211.46859375 21.24945313 -210.6796875 20.34765625 C-200.68598004 9.08356225 -200.68598004 9.08356225 -197 6 C-196.34 6 -195.68 6 -195 6 C-195 5.34 -195 4.68 -195 4 C-192.87212733 2.21148634 -190.74810732 0.56384348 -188.5 -1.0625 C-187.82727051 -1.55129639 -187.15454102 -2.04009277 -186.46142578 -2.54370117 C-129.92224882 -42.82508425 -55.40792361 -41.18290911 0 0 Z " fill="#906FAD" transform="translate(299,67)"/>
<path d="M0 0 C16.65678278 -0.0716485 33.30290987 0.15509983 49.95703125 0.4375 C52.68470203 0.48268383 55.41238129 0.52734552 58.14006042 0.57202148 C64.52488339 0.6768896 70.90967606 0.78349357 77.29445904 0.89076519 C84.57894431 1.01306499 91.86346224 1.13336268 99.14798319 1.25351524 C114.09869211 1.50015935 129.04935946 1.74924279 144 2 C145.19091797 6.61523438 145.19091797 6.61523438 143.47265625 10.078125 C136.6371952 19.07390195 136.6371952 19.07390195 130.8046875 19.9296875 C127.93773544 20.14378744 125.11733718 20.10886144 122.24609375 20.0078125 C121.17488281 20.00523438 120.10367188 20.00265625 119 20 C118.67 20.66 118.34 21.32 118 22 C101.5 22 85 22 68 22 C67.01 18.04 67.01 18.04 66 14 C63.41316357 10.86856643 60.9088262 8.26462024 57 7 C52.49457673 6.67233285 48.94808843 6.71426459 45 9 C41.34390181 12.74112373 39.32525564 15.93993301 38 21 C34.04 21 30.08 21 26 21 C26.495 22.98 26.495 22.98 27 25 C28.485 25.495 28.485 25.495 30 26 C31.69140625 28.08203125 31.69140625 28.08203125 33.5625 30.8125 C37.30283761 36.1078864 41.3125479 41.07440691 45.4921875 46.02734375 C48.62271183 49.73813661 51.69252749 53.49628147 54.76171875 57.2578125 C56.32388598 59.17167183 57.88924523 61.08292822 59.45703125 62.9921875 C60.25496094 63.96414062 61.05289063 64.93609375 61.875 65.9375 C62.95394531 67.25041016 62.95394531 67.25041016 64.0546875 68.58984375 C65.2825446 70.11110446 66.4681932 71.66835442 67.58984375 73.26953125 C69.48503767 75.59521244 71.09155525 75.68557354 74 76 C74.41185547 75.11054688 74.41185547 75.11054688 74.83203125 74.203125 C75.95143861 72.09160075 77.10883253 70.53194793 78.6875 68.75 C79.22117188 68.14285156 79.75484375 67.53570312 80.3046875 66.91015625 C80.86414063 66.27980469 81.42359375 65.64945312 82 65 C83.10429006 63.72927388 84.20845326 62.45843752 85.3125 61.1875 C88.04175068 58.06489834 90.8277191 54.99920049 93.625 51.9375 C96.26975857 49.02240835 98.71358017 46.12231656 100.9375 42.875 C101.618125 41.92625 102.29875 40.9775 103 40 C103.66 40 104.32 40 105 40 C105.35578125 39.18789062 105.35578125 39.18789062 105.71875 38.359375 C107.34347757 35.36749863 109.3501877 32.88840601 111.5 30.25 C112.2940625 29.26515625 113.088125 28.2803125 113.90625 27.265625 C114.5971875 26.51796875 115.288125 25.7703125 116 25 C116.66 25 117.32 25 118 25 C118.04690615 27.6736503 118.03783878 30.32763613 118 33 C118.0309375 34.670625 118.0309375 34.670625 118.0625 36.375 C116.64792712 41.20118981 113.96740356 43.7398045 110.52734375 47.33203125 C108.05714825 49.93967194 105.80610616 52.63399213 103.5625 55.4375 C100.48663412 59.24087503 97.31246834 62.90082652 94 66.5 C79.27299925 81.12620952 79.27299925 81.12620952 72.79467773 99.69873047 C72.77473251 100.87200897 72.75478729 102.04528748 72.73423767 103.25411987 C72.71752518 104.52893219 72.70081268 105.80374451 72.68359375 107.1171875 C72.66297128 108.45265263 72.64197364 109.78811202 72.62062073 111.12356567 C72.57661864 113.93634658 72.53574145 116.74914921 72.49731445 119.56201172 C72.44891914 123.10186869 72.39518192 126.64161555 72.33934593 130.18136215 C72.09399595 145.78786459 71.93070132 161.3912974 72 177 C72.66 177 73.32 177 74 177 C74 177.66 74 178.32 74 179 C74.66386719 179.06703125 75.32773438 179.1340625 76.01171875 179.203125 C80.13099419 180.30159845 83.26213416 182.43875526 86.8125 184.75 C87.48603516 185.18054688 88.15957031 185.61109375 88.85351562 186.0546875 C90.21150209 186.92275923 91.56715293 187.79449589 92.92041016 188.66992188 C95.7652948 190.48947242 98.64964368 192.24333154 101.5378418 193.99316406 C102.020354 194.32541992 102.50286621 194.65767578 103 195 C103 195.33 103 195.66 103 196 C96.79679647 196.0251048 90.59362383 196.04304712 84.39038086 196.05493164 C82.28913863 196.05989684 80.18789973 196.06667123 78.08666992 196.07543945 C64.68650135 196.12987263 51.37314736 195.87600485 38 195 C38 194.34 38 193.68 38 193 C38.50861572 192.71801758 39.01723145 192.43603516 39.54125977 192.14550781 C41.88193028 190.84746821 44.22221716 189.54873841 46.5625 188.25 C47.36236328 187.8065625 48.16222656 187.363125 48.98632812 186.90625 C49.77587891 186.46796875 50.56542969 186.0296875 51.37890625 185.578125 C52.0963501 185.18012695 52.81379395 184.78212891 53.55297852 184.37207031 C54.76425415 183.69289551 54.76425415 183.69289551 56 183 C57.84754883 182.31925415 57.84754883 182.31925415 59.73242188 181.62475586 C61.61556338 180.64885152 61.61556338 180.64885152 63 179 C64.08251602 174.8324909 63.95275828 170.71085596 63.90234375 166.42578125 C63.91490707 165.16521912 63.9274704 163.90465698 63.94041443 162.605896 C63.96753612 159.20756558 63.96417275 155.81203794 63.94542694 152.41383743 C63.93224305 148.9189447 63.95439002 145.42428479 63.97314453 141.92944336 C63.99564614 137.10388628 64.00473167 132.27865175 63.99615097 127.45304966 C63.98416349 120.57462785 64.05471283 113.70449121 64.21484375 106.828125 C64.25717902 104.58241998 64.2969197 102.33669285 64.33499146 100.09091187 C64.37394388 98.1160445 64.43266919 96.14159825 64.49194336 94.16723633 C64.68887487 87.20905269 64.68887487 87.20905269 61.4765625 81.30859375 C60.65929687 80.54675781 59.84203125 79.78492188 59 79 C59 78.34 59 77.68 59 77 C58.01 77 57.02 77 56 77 C54.32448161 78.75925939 54.32448161 78.75925939 52.75 81.0625 C38.75580371 99.64400545 19.81646094 105.15189757 -2 110 C-2 131.78 -2 153.56 -2 176 C-0.68 176.33 0.64 176.66 2 177 C2 177.66 2 178.32 2 179 C2.72018311 179.26804443 3.44036621 179.53608887 4.18237305 179.81225586 C7.00816978 181.00344389 9.47558746 182.39231463 12.08203125 184.00390625 C13.47905273 184.86725586 13.47905273 184.86725586 14.90429688 185.74804688 C15.86400391 186.34681641 16.82371094 186.94558594 17.8125 187.5625 C18.79154297 188.16513672 19.77058594 188.76777344 20.77929688 189.38867188 C26.14465437 192.72005413 26.14465437 192.72005413 28 194 C28 194.33 28 194.66 28 195 C5.89 195 -16.22 195 -39 195 C-36.3832059 192.3832059 -34.40465305 190.92306274 -31.25390625 189.1171875 C-30.33416016 188.58996094 -29.41441406 188.06273437 -28.46679688 187.51953125 C-27.50837891 186.97683594 -26.54996094 186.43414062 -25.5625 185.875 C-24.60794922 185.32457031 -23.65339844 184.77414062 -22.66992188 184.20703125 C-21.74888672 183.68238281 -20.82785156 183.15773438 -19.87890625 182.6171875 C-19.0391626 182.13878418 -18.19941895 181.66038086 -17.33422852 181.16748047 C-15.19996977 180.10001626 -13.33064227 179.46257022 -11 179 C-11.00523682 177.98615234 -11.01047363 176.97230469 -11.01586914 175.92773438 C-11.12233186 153.2612654 -10.89674813 130.65004529 -10 108 C-10.56702637 107.95029053 -11.13405273 107.90058105 -11.71826172 107.84936523 C-28.95907609 106.16491785 -44.19368271 98.12861495 -56.01171875 85.46484375 C-65.61841604 73.5555589 -72.62691169 58.36730338 -74 43 C-73.06640625 39.58984375 -73.06640625 39.58984375 -72 37 C-67.90389576 36.18430887 -64.41757685 35.98423815 -60.27075195 36.41772461 C-51.7379637 37.16981271 -43.2277733 37.22958949 -34.66796875 37.31640625 C-32.93776516 37.3370302 -31.20756598 37.35802787 -29.47737122 37.37937927 C-24.96812567 37.43403912 -20.458839 37.48369078 -15.94952393 37.53222656 C-11.33024525 37.58285663 -6.71102479 37.63832391 -2.09179688 37.69335938 C6.93875212 37.80025268 15.9693521 37.90184443 25 38 C22.65823871 34.45711663 20.32396955 31.04520414 17.58203125 27.80078125 C16.96779297 27.06666016 16.35355469 26.33253906 15.72070312 25.57617188 C14.43792441 24.05443132 13.15405192 22.53361217 11.86914062 21.01367188 C11.25876953 20.28341797 10.64839844 19.55316406 10.01953125 18.80078125 C9.46370361 18.14247314 8.90787598 17.48416504 8.33520508 16.8059082 C7 15 7 15 6 12 C5.34 12 4.68 12 4 12 C-0.58333333 5.88888889 -0.58333333 5.88888889 -1 2 C-0.67 1.34 -0.34 0.68 0 0 Z " fill="#E3F1F8" transform="translate(133,84)"/>
<path d="M0 0 C4.97232725 -0.02539293 9.94461397 -0.04317327 14.91699219 -0.05493164 C16.59603535 -0.05985133 18.27507453 -0.06658664 19.95410156 -0.07543945 C30.20688924 -0.128002 40.42233747 0.0511162 50.66601562 0.50610352 C51.76262512 0.55335823 52.85923462 0.60061295 53.98907471 0.64929962 C56.65945703 0.76459835 59.32975707 0.88152433 62 1 C62.0231314 14.00383566 62.04091918 27.00766646 62.05181217 40.01151848 C62.05703924 46.04919026 62.06413373 52.08684801 62.07543945 58.12451172 C62.08627454 63.94702417 62.09227816 69.76952308 62.09487724 75.59204483 C62.09673037 77.81768126 62.10034883 80.04331691 62.10573006 82.2689476 C62.1129487 85.37706882 62.11399059 88.48513352 62.11352539 91.59326172 C62.11712067 92.52114502 62.12071594 93.44902832 62.12442017 94.4050293 C62.1230455 95.24919403 62.12167084 96.09335876 62.12025452 96.96310425 C62.12117631 97.69869505 62.1220981 98.43428585 62.12304783 99.19216728 C62 101 62 101 61 103 C59.92363281 103.02578125 58.84726562 103.0515625 57.73828125 103.078125 C45.46080914 103.5030927 35.12031037 105.92598405 23.9453125 111.18359375 C21.3489656 112.27322528 18.79074832 112.7137694 16 113 C16 113.66 16 114.32 16 115 C10.39 115 4.78 115 -1 115 C-1.02989475 104.64583924 -1.05103229 94.29169708 -1.0625 83.9375 C-1.06335602 83.1700798 -1.06421204 82.40265961 -1.06509399 81.61198425 C-1.09190046 54.39609305 -0.77192749 27.20633794 0 0 Z M39 43 C39.28983269 46.30683466 39.28983269 46.30683466 41 49 C43.5 49.16666667 43.5 49.16666667 46 49 C47.34404775 47.88163776 47.34404775 47.88163776 47.125 45 C47.34404775 42.11836224 47.34404775 42.11836224 46 41 C42.038832 40.60909667 42.038832 40.60909667 39 43 Z M25 64 C24.5 66.5 24.5 66.5 25 69 C27.68671748 71.22738107 27.68671748 71.22738107 30.0625 70.875 C32.57283417 69.7413007 33.02691202 68.51381062 34 66 C32.71034824 64.62437146 31.37310707 63.29233607 30 62 C27.67642489 61.81509993 27.67642489 61.81509993 25 64 Z M44 76 C42.80161791 78.32854463 42.80161791 78.32854463 42 81 C42.99 82.485 42.99 82.485 44 84 C46.5 84.41666667 46.5 84.41666667 49 84 C49.66 83.34 50.32 82.68 51 82 C50.71016731 78.69316534 50.71016731 78.69316534 49 76 C47.33382885 75.95936168 45.66611905 75.957279 44 76 Z " fill="#F2D85A" transform="translate(260,125)"/>
<path d="M0 0 C2.34341753 2.34341753 2.44134579 3.43782335 3.125 6.625 C8.01839309 25.10846005 18.90486139 38.93839927 35.0859375 48.87109375 C43.72460283 53.80530886 53.35059873 55.93795119 63 58 C63.16210253 81.68442633 62.70733987 105.3266892 62 129 C60.47910767 129.79664063 60.47910767 129.79664063 58.92749023 130.609375 C57.57526481 131.32273991 56.22313788 132.03629154 54.87109375 132.75 C53.87257385 133.27207031 53.87257385 133.27207031 52.85388184 133.8046875 C48.74289977 135.98042319 44.8934456 138.34948541 41.0625 141 C35.18236195 144.39299858 29.45946064 145.76773674 22.69921875 145.09375 C17.56367746 143.57532174 15.64643418 141.06955814 13.09570312 136.44726562 C12.40103412 135.06997389 11.7276643 133.68179147 11.07275391 132.28515625 C9.92615989 129.84270746 8.69391709 127.45632908 7.44921875 125.0625 C-1.4049256 107.67341229 -6.67686144 90.34433384 -9 71 C-9.14308594 69.90816406 -9.28617188 68.81632812 -9.43359375 67.69140625 C-11.66556177 46.50148762 -9.71757653 19.43515307 0 0 Z " fill="#906FAD" transform="translate(60,134)"/>
<path d="M0 0 C3.93721825 1.31240608 5.36620326 3.12311251 7.73876953 6.45556641 C10.22418463 11.46969652 9.64533756 16.71143204 9.4375 22.1875 C9.34714389 25.10265026 9.26921435 28.01808519 9.19140625 30.93359375 C9.16606812 31.75159454 9.14072998 32.56959534 9.11462402 33.41238403 C8.94622259 40.03650502 9.12615017 46.61881029 9.3820343 53.23921204 C9.56248055 58.00988755 9.65877299 62.781477 9.73749447 67.55480862 C9.79830393 70.98426857 9.89794831 74.40310014 10.08883667 77.82797241 C11.23974372 99.22133142 11.23974372 99.22133142 5.89318848 105.45727539 C0.70016323 109.67647142 -5.03913892 112.49328663 -11.24847412 114.91467285 C-13.87244882 115.949688 -16.32476684 117.16174608 -18.84033203 118.43261719 C-21.91000588 119.79548638 -22.75032728 120.04208719 -26.1862793 119.46289062 C-29.1824459 117.90514396 -32.1223385 116.33053972 -35.01953125 114.59375 C-36.6756543 113.60181641 -36.6756543 113.60181641 -38.36523438 112.58984375 C-39.21347778 112.07526611 -39.21347778 112.07526611 -40.07885742 111.55029297 C-41.82045468 110.49518081 -43.5688908 109.45215334 -45.31835938 108.41015625 C-53.87137277 103.25725446 -53.87137277 103.25725446 -55 101 C-55.06290075 98.81388102 -55.05751139 96.62569581 -55.02172852 94.43896484 C-55.01212097 93.76567642 -55.00251343 93.092388 -54.99261475 92.3986969 C-54.95958733 90.16933863 -54.91926946 87.94017404 -54.87890625 85.7109375 C-54.85460878 84.16680589 -54.83076503 82.62266709 -54.80735779 81.07852173 C-54.74447971 77.01122851 -54.67542366 72.94406253 -54.60510254 68.87689209 C-54.53445268 64.72788292 -54.4696157 60.57878342 -54.40429688 56.4296875 C-54.27523655 48.28635833 -54.13965278 40.14315437 -54 32 C-53.05463379 31.80374023 -52.10926758 31.60748047 -51.13525391 31.40527344 C-49.88663574 31.14262695 -48.63801758 30.87998047 -47.3515625 30.609375 C-46.11744629 30.35124023 -44.88333008 30.09310547 -43.61181641 29.82714844 C-25.27009297 25.62667805 -10.86547713 15.21886366 0 0 Z " fill="#906FAD" transform="translate(189,160)"/>
<path d="M0 0 C0.66 0 1.32 0 2 0 C2.04690615 2.6736503 2.03783878 5.32763613 2 8 C2.0309375 9.670625 2.0309375 9.670625 2.0625 11.375 C0.64792712 16.20118981 -2.03259644 18.7398045 -5.47265625 22.33203125 C-7.94285175 24.93967194 -10.19389384 27.63399213 -12.4375 30.4375 C-15.51336588 34.24087503 -18.68753166 37.90082652 -22 41.5 C-36.72700075 56.12620952 -36.72700075 56.12620952 -43.20532227 74.69873047 C-43.22526749 75.87200897 -43.24521271 77.04528748 -43.26576233 78.25411987 C-43.28247482 79.52893219 -43.29918732 80.80374451 -43.31640625 82.1171875 C-43.33702872 83.45265263 -43.35802636 84.78811202 -43.37937927 86.12356567 C-43.42338136 88.93634658 -43.46425855 91.74914921 -43.50268555 94.56201172 C-43.55108086 98.10186869 -43.60481808 101.64161555 -43.66065407 105.18136215 C-43.90600405 120.78786459 -44.06929868 136.3912974 -44 152 C-43.34 152 -42.68 152 -42 152 C-42 152.66 -42 153.32 -42 154 C-41.33613281 154.06703125 -40.67226562 154.1340625 -39.98828125 154.203125 C-35.86900581 155.30159845 -32.73786584 157.43875526 -29.1875 159.75 C-28.51396484 160.18054688 -27.84042969 160.61109375 -27.14648438 161.0546875 C-25.78849791 161.92275923 -24.43284707 162.79449589 -23.07958984 163.66992188 C-20.2347052 165.48947242 -17.35035632 167.24333154 -14.4621582 168.99316406 C-13.979646 169.32541992 -13.49713379 169.65767578 -13 170 C-13 170.33 -13 170.66 -13 171 C-19.20320353 171.0251048 -25.40637617 171.04304712 -31.60961914 171.05493164 C-33.71086137 171.05989684 -35.81210027 171.06667123 -37.91333008 171.07543945 C-51.31349865 171.12987263 -64.62685264 170.87600485 -78 170 C-78 169.34 -78 168.68 -78 168 C-77.49138428 167.71801758 -76.98276855 167.43603516 -76.45874023 167.14550781 C-74.11806972 165.84746821 -71.77778284 164.54873841 -69.4375 163.25 C-68.63763672 162.8065625 -67.83777344 162.363125 -67.01367188 161.90625 C-66.22412109 161.46796875 -65.43457031 161.0296875 -64.62109375 160.578125 C-63.9036499 160.18012695 -63.18620605 159.78212891 -62.44702148 159.37207031 C-61.23574585 158.69289551 -61.23574585 158.69289551 -60 158 C-58.15245117 157.31925415 -58.15245117 157.31925415 -56.26757812 156.62475586 C-54.38443662 155.64885152 -54.38443662 155.64885152 -53 154 C-51.91748398 149.8324909 -52.04724172 145.71085596 -52.09765625 141.42578125 C-52.08509293 140.16521912 -52.0725296 138.90465698 -52.05958557 137.605896 C-52.03246388 134.20756558 -52.03582725 130.81203794 -52.05457306 127.41383743 C-52.06775695 123.9189447 -52.04560998 120.42428479 -52.02685547 116.92944336 C-52.00435386 112.10388628 -51.99526833 107.27865175 -52.00384903 102.45304966 C-52.01583651 95.57462785 -51.94528717 88.70449121 -51.78515625 81.828125 C-51.74282098 79.58241998 -51.7030803 77.33669285 -51.66500854 75.09091187 C-51.62605612 73.1160445 -51.56733081 71.14159825 -51.50805664 69.16723633 C-51.31112513 62.20905269 -51.31112513 62.20905269 -54.5234375 56.30859375 C-55.74933594 55.16583984 -55.74933594 55.16583984 -57 54 C-57 53.34 -57 52.68 -57 52 C-57.99 52 -58.98 52 -60 52 C-61.67551839 53.75925939 -61.67551839 53.75925939 -63.25 56.0625 C-77.24419629 74.64400545 -96.18353906 80.15189757 -118 85 C-118 106.78 -118 128.56 -118 151 C-116.68 151.33 -115.36 151.66 -114 152 C-114 152.66 -114 153.32 -114 154 C-113.27981689 154.26804443 -112.55963379 154.53608887 -111.81762695 154.81225586 C-108.99183022 156.00344389 -106.52441254 157.39231463 -103.91796875 159.00390625 C-102.52094727 159.86725586 -102.52094727 159.86725586 -101.09570312 160.74804688 C-100.13599609 161.34681641 -99.17628906 161.94558594 -98.1875 162.5625 C-97.20845703 163.16513672 -96.22941406 163.76777344 -95.22070312 164.38867188 C-89.85534563 167.72005413 -89.85534563 167.72005413 -88 169 C-88 169.33 -88 169.66 -88 170 C-110.11 170 -132.22 170 -155 170 C-152.3832059 167.3832059 -150.40465305 165.92306274 -147.25390625 164.1171875 C-146.33416016 163.58996094 -145.41441406 163.06273437 -144.46679688 162.51953125 C-143.50837891 161.97683594 -142.54996094 161.43414062 -141.5625 160.875 C-140.60794922 160.32457031 -139.65339844 159.77414062 -138.66992188 159.20703125 C-137.74888672 158.68238281 -136.82785156 158.15773438 -135.87890625 157.6171875 C-135.0391626 157.13878418 -134.19941895 156.66038086 -133.33422852 156.16748047 C-131.19996977 155.10001626 -129.33064227 154.46257022 -127 154 C-127.00523682 152.98615234 -127.01047363 151.97230469 -127.01586914 150.92773438 C-127.12233186 128.2612654 -126.89674813 105.65004529 -126 83 C-126.56702637 82.95029053 -127.13405273 82.90058105 -127.71826172 82.84936523 C-144.95907609 81.16491785 -160.19368271 73.12861495 -172.01171875 60.46484375 C-181.61841604 48.5555589 -188.62691169 33.36730338 -190 18 C-189.06640625 14.58984375 -189.06640625 14.58984375 -188 12 C-181.47177494 10.66062252 -175.60760924 11.39317874 -169 12 C-168.67 17.94 -168.34 23.88 -168 30 C-172.95 30.495 -172.95 30.495 -178 31 C-177.71125 32.629375 -177.4225 34.25875 -177.125 35.9375 C-176.96257812 36.85402344 -176.80015625 37.77054688 -176.6328125 38.71484375 C-176.42398438 39.46894531 -176.21515625 40.22304687 -176 41 C-175.34 41.33 -174.68 41.66 -174 42 C-174 42.66 -174 43.32 -174 44 C-173.41476563 44.06058594 -172.82953125 44.12117188 -172.2265625 44.18359375 C-169.04965424 45.34846011 -168.19555365 47.24645212 -166.375 50.0625 C-157.61761159 62.53612335 -144.66240686 69.782909 -129.7734375 72.52734375 C-112.92688332 74.6375229 -97.25702098 72.13703885 -83.1953125 61.97265625 C-78.44985603 58.55052383 -78.44985603 58.55052383 -75 54 C-74.34 54 -73.68 54 -73 54 C-72.62875 53.195625 -72.62875 53.195625 -72.25 52.375 C-71 50 -71 50 -68.8125 47 C-66.79960164 44.28064944 -66.79960164 44.28064944 -67.0625 41.875 C-67.9687491 39.91100028 -67.9687491 39.91100028 -69.5 38.0625 C-71.274349 35.62277012 -71.70818358 33.99111832 -72 31 C-71.79375 30.195625 -71.5875 29.39125 -71.375 28.5625 C-70.8380449 24.8933068 -72.02543721 23.06397674 -74 20 C-74.680625 19.690625 -75.36125 19.38125 -76.0625 19.0625 C-78 18 -78 18 -79.25 14.375 C-79.4975 13.26125 -79.745 12.1475 -80 11 C-76.04746159 13.91202918 -73.2878672 16.99684855 -70.375 20.9375 C-66.3957488 26.24720222 -62.24149518 31.3527121 -57.90917969 36.37768555 C-54.59579053 40.23639841 -51.54060716 44.21923371 -48.6328125 48.390625 C-46.53993841 50.45345783 -44.87084624 50.66912281 -42 51 C-41.72542969 50.40703125 -41.45085937 49.8140625 -41.16796875 49.203125 C-40.04856139 47.09160075 -38.89116747 45.53194793 -37.3125 43.75 C-36.77882812 43.14285156 -36.24515625 42.53570312 -35.6953125 41.91015625 C-34.85613281 40.96462891 -34.85613281 40.96462891 -34 40 C-32.89570994 38.72927388 -31.79154674 37.45843752 -30.6875 36.1875 C-27.95824932 33.06489834 -25.1722809 29.99920049 -22.375 26.9375 C-19.73024143 24.02240835 -17.28641983 21.12231656 -15.0625 17.875 C-14.381875 16.92625 -13.70125 15.9775 -13 15 C-12.34 15 -11.68 15 -11 15 C-10.64421875 14.18789062 -10.64421875 14.18789062 -10.28125 13.359375 C-8.65652243 10.36749863 -6.6498123 7.88840601 -4.5 5.25 C-3.7059375 4.26515625 -2.911875 3.2803125 -2.09375 2.265625 C-1.4028125 1.51796875 -0.711875 0.7703125 0 0 Z " fill="#DFEDF8" transform="translate(249,109)"/>
<path d="M0 0 C0.33 0 0.66 0 1 0 C1.03153929 10.99998866 1.05129438 21.99997298 1.0625 33 C1.06335602 33.83418961 1.06421204 34.66837921 1.06509399 35.52784729 C1.09075281 63.93849046 0.88120034 92.34198927 0.5 120.75 C0.48804218 121.64156799 0.47608437 122.53313599 0.46376419 123.45172119 C0.31749774 134.30127121 0.16307656 145.15068972 0 156 C1.03326416 155.99476318 2.06652832 155.98952637 3.13110352 155.98413086 C28.5306197 155.86845923 53.9170804 156.07502012 79.3125 156.5 C80.38473249 156.51793673 80.38473249 156.51793673 81.47862625 156.53623581 C90.31919356 156.68468718 99.15964572 156.83933556 108 157 C108 157.33 108 157.66 108 158 C72.03 158 36.06 158 -1 158 C-1 157.34 -1 156.68 -1 156 C-1.66644531 156.06960938 -2.33289063 156.13921875 -3.01953125 156.2109375 C-11.32875076 156.69903151 -16.10997021 154.40892747 -23 150 C-24.38030043 149.14647763 -25.76189884 148.29505207 -27.14453125 147.4453125 C-32.13932736 144.36221547 -37.11587639 141.25608241 -42 138 C-41.34 138 -40.68 138 -40 138 C-40.02442673 136.87406433 -40.04885345 135.74812866 -40.07402039 134.58807373 C-40.29774427 123.93776803 -40.4622495 113.2879435 -40.56993389 102.63581467 C-40.62716083 97.16017916 -40.70467651 91.68645156 -40.82983398 86.21191406 C-40.9500295 80.92084489 -41.01526354 75.63160131 -41.04364967 70.33927155 C-41.06385681 68.32815069 -41.10331947 66.31712137 -41.16303062 64.30678558 C-41.6586049 46.91829176 -41.6586049 46.91829176 -36.21207142 40.53810501 C-33.93148502 38.21561838 -31.46696578 36.12108145 -29 34 C-27.44119193 32.17764289 -25.91387143 30.32726068 -24.4375 28.4375 C-20.63493901 23.71310605 -16.61067379 19.24930768 -12.50390625 14.7890625 C-9.10518671 11.0032813 -5.9075747 7.07864278 -2.71484375 3.1171875 C-1 1 -1 1 0 0 Z " fill="#9071AD" transform="translate(249,124)"/>
<path d="M0 0 C22.88864232 -0.06559117 45.76816693 0.10162381 68.65465474 0.40385818 C73.05071042 0.46144822 77.44679697 0.51658558 81.84288025 0.57202148 C90.10789002 0.67659885 98.37287125 0.78327184 106.63784355 0.89076519 C116.07250716 1.0133643 125.50720138 1.13352452 134.94189847 1.25351524 C154.29463337 1.49969665 173.64732928 1.74882587 193 2 C169.31224035 26.20776535 130.59885295 35.90641092 97.75 36.3125 C61.83949154 36.13090919 27.94315416 23.26842398 0 1 C0 0.67 0 0.34 0 0 Z " fill="#D24476" transform="translate(106,306)"/>
<path d="M0 0 C3.94371957 0.00580264 7.88737262 0.00233286 11.83108997 -0.00357246 C14.90311694 -0.00717813 17.97512794 -0.00604128 21.04715538 -0.00344467 C22.50358781 -0.00278084 23.96002171 -0.00358469 25.41645241 -0.00592422 C27.43176877 -0.00846221 29.44709031 -0.0039084 31.46240234 0.00097656 C32.60389236 0.00177216 33.74538239 0.00256775 34.92146301 0.00338745 C37.43184261 0.11209989 39.44868708 0.49057354 41.85375977 1.13037109 C42.58981445 0.97697266 43.32586914 0.82357422 44.08422852 0.66552734 C47.82443743 -0.05719286 51.39639784 0.29437902 55.16625977 0.56787109 C62.65281663 1.03523235 70.10293707 1.21724024 77.60375977 1.19287109 C79.10519531 1.18803711 79.10519531 1.18803711 80.63696289 1.18310547 C83.70926401 1.16936355 86.78149595 1.150759 89.85375977 1.13037109 C93.95792408 1.10350887 98.06203968 1.08368762 102.16625977 1.06787109 C103.07794922 1.05957275 103.98963867 1.05127441 104.92895508 1.04272461 C111.28790431 1.01882317 117.53167923 1.45612732 123.85375977 2.13037109 C123.85375977 2.79037109 123.85375977 3.45037109 123.85375977 4.13037109 C124.41606135 4.12337378 124.97836294 4.11637646 125.55770397 4.1091671 C139.24546583 3.93954257 152.93331897 3.78139887 166.62135601 3.63559532 C173.24081234 3.56473856 179.86018025 3.49007256 186.47949219 3.40673828 C192.86603641 3.32647398 199.25261937 3.25616718 205.6393528 3.19279861 C208.07746236 3.16685111 210.51553629 3.13729993 212.95355797 3.1041069 C216.36517366 3.05827079 219.77669057 3.02518424 223.18847656 2.99511719 C224.19908142 2.9785759 225.20968628 2.96203461 226.25091553 2.94499207 C227.18334579 2.93932724 228.11577606 2.93366241 229.07646179 2.92782593 C230.28631508 2.91399903 230.28631508 2.91399903 231.52060986 2.89989281 C233.85375977 3.13037109 233.85375977 3.13037109 238.85375977 5.13037109 C238.85375977 13.05037109 238.85375977 20.97037109 238.85375977 29.13037109 C238.52375977 29.13037109 238.19375977 29.13037109 237.85375977 29.13037109 C237.85375977 25.50037109 237.85375977 21.87037109 237.85375977 18.13037109 C235.15787689 18.14117958 235.15787689 18.14117958 232.40753174 18.15220642 C205.3333266 18.2236111 178.26465065 17.88652849 151.19285107 17.55751538 C147.17400581 17.50880306 143.15515419 17.46065842 139.13629913 17.4127636 C125.79504033 17.25369211 112.45380344 17.09293457 99.11259219 16.92992283 C98.40069312 16.92122456 97.68879404 16.9125263 96.95532227 16.90356445 C96.24253043 16.89485492 95.52973859 16.88614539 94.79534701 16.87717193 C83.18665731 16.73543319 71.57792236 16.59785801 59.96916124 16.46210767 C47.96950682 16.32173787 35.96989308 16.17825258 23.97031426 16.03155845 C17.26455029 15.94964393 10.55877686 15.86905649 3.85295868 15.79168892 C-2.43472726 15.71903532 -8.72235194 15.64237054 -15.00995255 15.56268311 C-17.30681515 15.53424081 -19.60369558 15.50719674 -21.9005928 15.4817028 C-33.36059819 15.35368729 -44.72270383 15.11427175 -56.14624023 14.13037109 C-56.14624023 9.84037109 -56.14624023 5.55037109 -56.14624023 1.13037109 C-37.42169439 0.17693194 -18.74352319 -0.02797276 0 0 Z " fill="#EA7DA6" transform="translate(124.146240234375,277.86962890625)"/>
<path d="M0 0 C10.86624618 -0.0578797 21.7315934 -0.06350593 32.59793091 -0.02334595 C38.70237609 -0.00288625 44.80623223 -0.00301498 50.91064453 -0.03076172 C57.13075727 -0.05865071 63.35013746 -0.05543418 69.57022762 -0.02174091 C72.99716436 -0.00425762 76.42282481 -0.00093269 79.84970093 -0.03103638 C83.72852459 -0.06448947 87.60553361 -0.03446327 91.484375 0 C93.22715477 -0.0291172 93.22715477 -0.0291172 95.00514221 -0.05882263 C102.69807544 0.07901664 102.69807544 0.07901664 106.36340332 2.671875 C108.3409999 4.74609127 109.82042673 6.38449064 111 9 C110.627845 12.90395228 109.44087816 15.22467897 107.0625 18.3125 C106.53785156 19.00988281 106.01320313 19.70726562 105.47265625 20.42578125 C104.74369141 21.20501953 104.74369141 21.20501953 104 22 C103.34 22 102.68 22 102 22 C101.77957031 22.56847656 101.55914062 23.13695312 101.33203125 23.72265625 C96.16275564 32.56045004 84.21184194 37.11478158 75 40 C73.88367188 40.36609375 72.76734375 40.7321875 71.6171875 41.109375 C67.6723771 42.08066741 63.97417933 42.34513282 59.9375 42.3125 C59.19798096 42.30686035 58.45846191 42.3012207 57.6965332 42.29541016 C40.63672562 41.9255399 26.22196218 35.96542924 14 24 C0 7.86625194 0 7.86625194 0 0 Z " fill="#E87FA7" transform="translate(72,141)"/>
<path d="M0 0 C0.33 0 0.66 0 1 0 C1.13948245 27.6304002 0.92709769 55.24832084 0.5 82.875 C0.48804218 83.64875473 0.47608437 84.42250946 0.46376419 85.2197113 C0.3149704 94.81323846 0.15976171 104.40664913 0 114 C5.61 114 11.22 114 17 114 C17 113.34 17 112.68 17 112 C18.175625 111.566875 19.35125 111.13375 20.5625 110.6875 C23.15683564 109.72027382 25.66023158 108.7022485 28.1875 107.5625 C36.91035212 103.87734 44.49016297 101.69554684 53.9453125 101.88671875 C54.72398682 101.89489624 55.50266113 101.90307373 56.30493164 101.91149902 C58.20339942 101.93262549 60.10173503 101.96512409 62 102 C62.02526692 109.38728102 62.0428316 116.77455098 62.05493164 124.16186523 C62.05997363 126.67716895 62.06680703 129.19246972 62.07543945 131.70776367 C62.08751094 135.31429775 62.09322949 138.92079323 62.09765625 142.52734375 C62.10281754 143.65961899 62.10797882 144.79189423 62.11329651 145.95848083 C62.11337204 146.99948441 62.11344757 148.04048798 62.11352539 149.11303711 C62.115746 150.03459091 62.11796661 150.95614471 62.12025452 151.90562439 C62 154 62 154 61 155 C46.15055432 155.99610255 30.92119435 154.92883361 16.05078125 154.4921875 C14.38562415 154.4444391 12.72046303 154.39683094 11.05529785 154.34936523 C7.03681717 154.23451991 3.01839507 154.11780135 -1 154 C-1.02354843 137.75991367 -1.04108539 121.51983303 -1.05181217 105.27973366 C-1.05692916 97.73612516 -1.06388212 90.19252739 -1.07543945 82.64892578 C-1.085529 76.06012348 -1.09188666 69.47132894 -1.09408849 62.88251913 C-1.09537187 59.40635613 -1.09830165 55.93021534 -1.10573006 52.4540596 C-1.13891263 34.94401805 -0.82990337 17.4914209 0 0 Z " fill="#75E3B2" transform="translate(259,126)"/>
<path d="M0 0 C2.62418774 2.10454661 4.08223012 4.27383525 5.578125 7.265625 C5.578125 9.245625 5.578125 11.225625 5.578125 13.265625 C21.748125 13.265625 37.918125 13.265625 54.578125 13.265625 C52.78822907 18.63531279 52.14954794 20.17820328 48.515625 23.953125 C45.30419779 27.37898773 42.25433491 30.84298817 39.328125 34.515625 C35.6959682 39.01592473 31.85393069 43.24781958 27.890625 47.453125 C22.58190851 53.09007471 17.90316541 58.88374804 13.515625 65.265625 C11.578125 67.265625 11.578125 67.265625 9.28515625 67.75390625 C5.31442394 67.03768469 3.68335396 64.48993011 1.328125 61.453125 C0.84923828 60.86072021 0.37035156 60.26831543 -0.12304688 59.65795898 C-1.10306742 58.44383326 -2.07705537 57.22481314 -3.04492188 56.00097656 C-4.96665147 53.5790521 -6.9475516 51.20725572 -8.921875 48.828125 C-13.76760122 42.88228796 -18.49257004 36.84266474 -23.21557617 30.79931641 C-24.32871041 29.3840747 -25.45667462 27.98053089 -26.5859375 26.578125 C-28.56075779 24.09069179 -30.37298127 21.52664477 -32.17578125 18.9140625 C-33.40358529 17.19960673 -33.40358529 17.19960673 -35.07421875 15.6796875 C-36.421875 14.265625 -36.421875 14.265625 -36.421875 12.265625 C-32.461875 12.265625 -28.501875 12.265625 -24.421875 12.265625 C-24.40125 11.440625 -24.380625 10.615625 -24.359375 9.765625 C-23.05068087 4.87983357 -20.22407799 1.56401642 -16.421875 -1.734375 C-10.5725508 -3.78954296 -5.18281436 -3.31513351 0 0 Z " fill="#6DD2A5" transform="translate(195.421875,92.734375)"/>
<path d="M0 0 C2.56800144 -0.08029861 5.092363 -0.02192966 7.65869141 0.10009766 C8.55136719 0.12265625 9.44404297 0.14521484 10.36376953 0.16845703 C12.56793413 0.22739191 14.76871812 0.30958948 16.97119141 0.41259766 C15.98119141 0.90759766 15.98119141 0.90759766 14.97119141 1.41259766 C14.97119141 8.34259766 14.97119141 15.27259766 14.97119141 22.41259766 C12.00119141 22.74259766 9.03119141 23.07259766 5.97119141 23.41259766 C5.14258065 41.57541096 4.7789436 59.71535417 4.66786838 77.89576387 C4.64548099 81.41371585 4.61835909 84.93163184 4.59181213 88.44955444 C4.54257772 95.06437126 4.49739246 101.6792088 4.45378977 108.29406488 C4.40381182 115.8447294 4.34912523 123.39535775 4.29411018 130.94598699 C4.18135814 146.43482352 4.07430129 161.92369374 3.97119141 177.41259766 C1.00119141 177.41259766 -1.96880859 177.41259766 -5.02880859 177.41259766 C-5.14035547 136.32565904 -5.10576059 95.24342122 -4.62308884 54.15869522 C-4.59134586 51.41581737 -4.56135668 48.67292507 -4.5317688 45.93002319 C-4.48463127 41.60414151 -4.43239158 37.27835123 -4.37593079 32.95258141 C-4.35575654 31.36641866 -4.33697492 29.78023746 -4.31971741 28.1940403 C-4.295548 26.01941431 -4.26560377 23.8449411 -4.23413086 21.67041016 C-4.21858658 20.45498535 -4.2030423 19.23956055 -4.18702698 17.98730469 C-4.01384183 14.07444619 -3.56165528 10.29151189 -3.02880859 6.41259766 C-3.68880859 6.08259766 -4.34880859 5.75259766 -5.02880859 5.41259766 C-3.97300697 2.48493812 -3.20332093 0.65145757 0 0 Z " fill="#6BD3F5" transform="translate(254.02880859375,102.58740234375)"/>
<path d="M0 0 C20.13 0 40.26 0 61 0 C61 0.33 61 0.66 61 1 C54.73 1 48.46 1 42 1 C42 7.6 42 14.2 42 21 C28.14 21 14.28 21 0 21 C0 14.07 0 7.14 0 0 Z " fill="#96DCF5" transform="translate(269,104)"/>
<path d="M0 0 C0.33 0 0.66 0 1 0 C1.13948245 27.6304002 0.92709769 55.24832084 0.5 82.875 C0.48804218 83.64875473 0.47608437 84.42250946 0.46376419 85.2197113 C0.3149704 94.81323846 0.15976171 104.40664913 0 114 C5.61 114 11.22 114 17 114 C17 113.34 17 112.68 17 112 C18.32 112.33 19.64 112.66 21 113 C20.01 113.495 20.01 113.495 19 114 C18.97494385 115.07483643 18.9498877 116.14967285 18.92407227 117.25708008 C18.82992505 121.24353022 18.72972215 125.22980909 18.62768555 129.21606445 C18.58436438 130.94160965 18.54268727 132.66719693 18.50268555 134.39282227 C18.44491474 136.87268764 18.38123997 139.35234172 18.31640625 141.83203125 C18.29969376 142.60400345 18.28298126 143.37597565 18.26576233 144.17134094 C18.17772105 147.35182933 18.01254805 149.96235584 17 153 C11.06 153 5.12 153 -1 153 C-1.02333053 136.89029693 -1.04108628 120.78060103 -1.05181217 104.67088509 C-1.05692878 97.1878107 -1.06388096 89.70474712 -1.07543945 82.22167969 C-1.08553021 75.68561509 -1.09188694 69.14955834 -1.09408849 62.61348617 C-1.09537167 59.16526877 -1.0983001 55.71707376 -1.10573006 52.26886368 C-1.13906883 34.8206066 -0.82547009 17.42973492 0 0 Z " fill="#77D4A7" transform="translate(259,126)"/>
<path d="M0 0 C2.56800144 -0.08029861 5.092363 -0.02192966 7.65869141 0.10009766 C8.55136719 0.12265625 9.44404297 0.14521484 10.36376953 0.16845703 C12.56793413 0.22739191 14.76871812 0.30958948 16.97119141 0.41259766 C15.98119141 0.90759766 15.98119141 0.90759766 14.97119141 1.41259766 C14.97119141 8.34259766 14.97119141 15.27259766 14.97119141 22.41259766 C12.00119141 22.74259766 9.03119141 23.07259766 5.97119141 23.41259766 C5.14258065 41.57541096 4.7789436 59.71535417 4.66786838 77.89576387 C4.64548099 81.41371585 4.61835909 84.93163184 4.59181213 88.44955444 C4.54257772 95.06437126 4.49739246 101.6792088 4.45378977 108.29406488 C4.40381182 115.8447294 4.34912523 123.39535775 4.29411018 130.94598699 C4.18135814 146.43482352 4.07430129 161.92369374 3.97119141 177.41259766 C1.00119141 177.41259766 -1.96880859 177.41259766 -5.02880859 177.41259766 C-5.02880859 177.08259766 -5.02880859 176.75259766 -5.02880859 176.41259766 C-2.38880859 176.41259766 0.25119141 176.41259766 2.97119141 176.41259766 C2.97026961 175.65629783 2.96934782 174.899998 2.96839809 174.12077999 C2.94630297 155.70881308 2.92976037 137.29684883 2.91937923 118.88487148 C2.91422542 109.98094138 2.90720012 101.07702013 2.89575195 92.1730957 C2.8857772 84.41142857 2.87933132 76.64976785 2.87710291 68.88809448 C2.87580055 64.77928979 2.87274471 60.67050344 2.86546135 56.56170464 C2.85865711 52.69171796 2.8565834 48.82175715 2.85808372 44.95176506 C2.85780938 43.53404093 2.85583044 42.1163159 2.85198593 40.69859695 C2.84697989 38.75674826 2.84880974 36.8148856 2.85093689 34.87303162 C2.8500151 33.78808127 2.8490933 32.70313093 2.84814358 31.58530331 C2.98176667 28.13992146 3.42987927 24.81580002 3.97119141 21.41259766 C2.32119141 21.74259766 0.67119141 22.07259766 -1.02880859 22.41259766 C-2.04130657 25.77634662 -2.16565562 28.85550929 -2.18702698 32.3604126 C-2.1968158 33.57754944 -2.20660461 34.79468628 -2.21669006 36.04870605 C-2.2225938 37.39428672 -2.22840427 38.73986779 -2.23413086 40.08544922 C-2.24371278 41.50474328 -2.25372305 42.9240345 -2.26412964 44.34332275 C-2.29115075 48.19418459 -2.31217543 52.04505865 -2.33213162 55.89596272 C-2.35400841 59.92120398 -2.38138882 63.94640769 -2.40818787 67.97161865 C-2.45809186 75.59298105 -2.5030392 83.21436432 -2.54621023 90.83576751 C-2.59560221 99.51286625 -2.65051307 108.18992732 -2.70588982 116.86698961 C-2.81967466 134.71549064 -2.92652132 152.56402723 -3.02880859 170.41259766 C-3.68880859 170.74259766 -4.34880859 171.07259766 -5.02880859 171.41259766 C-5.14527632 132.45559661 -5.07847103 93.50414116 -4.62308884 54.54925919 C-4.59134143 51.79045112 -4.5613481 49.03162873 -4.5317688 46.27279663 C-4.48456614 41.91154285 -4.43230817 37.55037838 -4.37593079 33.18923378 C-4.35574221 31.58504275 -4.3369623 29.98083327 -4.31971741 28.37660789 C-4.29553839 26.1728657 -4.26558808 23.96927374 -4.23413086 21.765625 C-4.21858658 20.53210297 -4.2030423 19.29858093 -4.18702698 18.02767944 C-4.0151286 14.10002785 -3.5645202 10.30582351 -3.02880859 6.41259766 C-3.68880859 6.08259766 -4.34880859 5.75259766 -5.02880859 5.41259766 C-3.97300697 2.48493812 -3.20332093 0.65145757 0 0 Z " fill="#75CEED" transform="translate(254.02880859375,102.58740234375)"/>
<path d="M0 0 C6.6 0 13.2 0 20 0 C22 4 22 4 22 8 C22.66 8 23.32 8 24 8 C24.64834654 9.269553 25.29357815 10.54069706 25.9375 11.8125 C26.29714844 12.52019531 26.65679687 13.22789062 27.02734375 13.95703125 C28 16 28 16 29 19 C29.66 19 30.32 19 31 19 C31.103125 19.639375 31.20625 20.27875 31.3125 20.9375 C31.539375 21.618125 31.76625 22.29875 32 23 C32.99 23.33 33.98 23.66 35 24 C36.52152713 25.3947332 37.88620377 26.87281598 39.26171875 28.41015625 C44.27448169 32.99486302 51.49556048 36.24204337 58 38 C58 38.66 58 39.32 58 40 C59.65 40 61.3 40 63 40 C63 40.33 63 40.66 63 41 C46.08484173 41.8114948 33.66301201 39.92547711 20 29 C19.38898438 28.56300781 18.77796875 28.12601563 18.1484375 27.67578125 C10.04142095 21.51222757 3.99974672 11.21680766 0 2 C0 1.34 0 0.68 0 0 Z " fill="#E86797" transform="translate(72,141)"/>
<path d="M0 0 C0.89847656 0.00257812 1.79695313 0.00515625 2.72265625 0.0078125 C3.61855469 0.00523438 4.51445312 0.00265625 5.4375 0 C7.78515625 0.1328125 7.78515625 0.1328125 9.78515625 1.1328125 C9.8104917 8.74999278 9.828017 16.36716222 9.84008789 23.984375 C9.84511957 26.57617601 9.85194552 29.16797417 9.8605957 31.75976562 C9.87271216 35.48308005 9.8783962 39.20635697 9.8828125 42.9296875 C9.88797379 44.09022644 9.89313507 45.25076538 9.89845276 46.44647217 C9.89852829 47.52729065 9.89860382 48.60810913 9.89868164 49.72167969 C9.90090225 50.67210144 9.90312286 51.62252319 9.90541077 52.60174561 C9.78515625 55.1328125 9.78515625 55.1328125 8.78515625 59.1328125 C4.49515625 59.1328125 0.20515625 59.1328125 -4.21484375 59.1328125 C-4.40468606 23.77541293 -4.40468606 23.77541293 -3.77734375 9.9453125 C-3.71848999 8.59542236 -3.71848999 8.59542236 -3.65844727 7.21826172 C-3.29258924 0.19743921 -3.29258924 0.19743921 0 0 Z " fill="#E66897" transform="translate(302.21484375,43.8671875)"/>
<path d="M0 0 C0.99 0.99 0.99 0.99 2 2 C1.979375 2.825 1.95875 3.65 1.9375 4.5 C1.958125 5.325 1.97875 6.15 2 7 C2.99 7.66 3.98 8.32 5 9 C4.6071415 14.29573254 2.71030363 17.16162803 -0.875 20.875 C-1.36605225 21.39457275 -1.85710449 21.91414551 -2.36303711 22.44946289 C-13.06166813 33.47213981 -27.72283749 42.95745837 -43.5 43.3125 C-52.26070834 43.02830213 -59.34084826 41.2550843 -67 37 C-67 36.34 -67 35.68 -67 35 C-68.32 34.67 -69.64 34.34 -71 34 C-67.24429552 32.74809851 -64.90563154 33.40497025 -61 34 C-42.44805032 35.12046429 -27.46071652 30.62239429 -12.93359375 18.76953125 C-10.92043475 17.13912529 -10.92043475 17.13912529 -10 15 C-9.34 15 -8.68 15 -8 15 C-7.7525 14.46375 -7.505 13.9275 -7.25 13.375 C-6 11 -6 11 -3.875 8 C-1.64666737 5.02429162 -1.64666737 5.02429162 -2 1 C-1.34 0.67 -0.68 0.34 0 0 Z " fill="#E9EFF9" transform="translate(184,148)"/>
<path d="M0 0 C4.97097346 4.2608344 8.87815367 7.97173909 12.75 13.0625 C13.21792969 13.66126953 13.68585938 14.26003906 14.16796875 14.87695312 C15.47589442 16.56836408 16.76782876 18.25248212 18 20 C18.53882813 20.71027344 19.07765625 21.42054687 19.6328125 22.15234375 C21.54236918 26.12967752 21.39178305 29.54529829 21.328125 33.90234375 C21.3266597 34.81440582 21.3251944 35.7264679 21.32368469 36.66616821 C21.31424761 39.7568841 21.28232279 42.8469443 21.25 45.9375 C21.23724023 48.1620227 21.22547072 50.38655126 21.21459961 52.61108398 C21.1730721 59.67800227 21.1007608 66.74448244 21.02355194 73.81108093 C20.99922002 76.07249137 20.97603629 78.33391104 20.95318604 80.59533691 C20.56429641 119.06769257 20.11554186 157.54070807 19 196 C18.67 196 18.34 196 18 196 C17.85105233 157.94336251 18.12291918 119.90330104 18.64428711 81.8503418 C18.84780068 66.93317733 19.04893889 52.01629367 19.09375 37.09765625 C19.1002356 35.96943954 19.10672119 34.84122284 19.11340332 33.67881775 C19.11430969 32.16343163 19.11430969 32.16343163 19.11523438 30.61743164 C19.11728882 29.74252579 19.11934326 28.86761993 19.12145996 27.96620178 C19.21762826 25.99690698 19.21762826 25.99690698 18 25 C16.15968011 24.87662826 14.31470589 24.82208692 12.47045898 24.79467773 C11.28931015 24.77473251 10.10816132 24.75478729 8.89122009 24.73423767 C7.6058284 24.71752518 6.32043671 24.70081268 4.99609375 24.68359375 C3.68794205 24.66281265 2.37979034 24.64203156 1.03199768 24.62062073 C-2.45155447 24.565337 -5.9351666 24.51595569 -9.41882324 24.46777344 C-12.9713273 24.41760426 -16.5237439 24.36189433 -20.07617188 24.30664062 C-27.05070546 24.19898209 -34.02531798 24.09755433 -41 24 C-41 23.67 -41 23.34 -41 23 C-27.8 23 -14.6 23 -1 23 C-0.67 15.41 -0.34 7.82 0 0 Z " fill="#817FB3" transform="translate(312,80)"/>
<path d="M0 0 C2.31 0 4.62 0 7 0 C7 22.44 7 44.88 7 68 C3.04 68.99 3.04 68.99 -1 70 C-1.02333293 62.64499492 -1.04102059 55.28999804 -1.05181217 47.93496323 C-1.0569957 44.51847766 -1.06400934 41.10201771 -1.07543945 37.68554688 C-1.08854303 33.74349287 -1.09326561 29.80144867 -1.09765625 25.859375 C-1.10281754 24.65263123 -1.10797882 23.44588745 -1.11329651 22.20257568 C-1.11378158 14.75090079 -0.74679288 7.41447687 0 0 Z " fill="#E9F1FA" transform="translate(124,192)"/>
<path d="M0 0 C2.59721397 2.08934292 4.07375636 4.32096872 5.578125 7.26953125 C5.578125 8.91953125 5.578125 10.56953125 5.578125 12.26953125 C-3.991875 12.26953125 -13.561875 12.26953125 -23.421875 12.26953125 C-23.421875 5.47331276 -23.421875 5.47331276 -20.171875 1.95703125 C-19.56859375 1.28027344 -18.9653125 0.60351562 -18.34375 -0.09375 C-13.03904339 -4.61137616 -5.55555473 -3.54104051 0 0 Z " fill="#E580A8" transform="translate(195.421875,92.73046875)"/>
<path d="M0 0 C0.99 0.33 1.98 0.66 3 1 C3.21174127 20.10557753 3.320958 38.9971564 1 58 C-0.65 58 -2.3 58 -4 58 C-4.10466608 43.26784705 -4.10325227 28.54014837 -3.6875 13.8125 C-3.65378296 12.07746216 -3.65378296 12.07746216 -3.61938477 10.30737305 C-3.58385498 9.24301025 -3.5483252 8.17864746 -3.51171875 7.08203125 C-3.48553467 6.14593018 -3.45935059 5.2098291 -3.43237305 4.24536133 C-3.28968994 3.50439209 -3.14700684 2.76342285 -3 2 C-2.01 1.34 -1.02 0.68 0 0 Z " fill="#E97FA7" transform="translate(309,44)"/>
<path d="M0 0 C3.95253841 2.91202918 6.7121328 5.99684855 9.625 9.9375 C13.17272434 14.67139562 16.83680989 19.25896891 20.6875 23.75 C24.94500119 28.72044414 29.04927705 33.78180962 33 39 C31.16015625 40.546875 31.16015625 40.546875 29 42 C26.4375 41.25 26.4375 41.25 24 40 C22.515 39.505 22.515 39.505 21 39 C21 38.01 21 37.02 21 36 C19.02 36.495 19.02 36.495 17 37 C16.67 34.69 16.34 32.38 16 30 C15.401875 29.9175 14.80375 29.835 14.1875 29.75 C11.30531281 28.76182154 10.52329844 27.61136876 9 25 C8.11897708 22.13667552 7.87751636 20.47768621 8.625 17.5625 C9.1619551 13.8933068 7.97456279 12.06397674 6 9 C5.319375 8.690625 4.63875 8.38125 3.9375 8.0625 C2 7 2 7 0.75 3.375 C0.5025 2.26125 0.255 1.1475 0 0 Z " fill="#D3EEF7" transform="translate(169,120)"/>
<path d="M0 0 C4.29 0 8.58 0 13 0 C13 6.6 13 13.2 13 20 C8.71 20 4.42 20 0 20 C0 13.4 0 6.8 0 0 Z " fill="#6DD3F4" transform="translate(298,105)"/>
<path d="M0 0 C4.8282768 4.13852297 8.68835269 7.68005378 12.4375 12.625 C12.88287109 13.18445313 13.32824219 13.74390625 13.78710938 14.3203125 C16.28937927 17.57979771 17 18.75145832 17 23 C11.06 23 5.12 23 -1 23 C-0.67 15.41 -0.34 7.82 0 0 Z " fill="#916FAB" transform="translate(312,80)"/>
<path d="M0 0 C8.92739557 -0.02317125 17.85478078 -0.04093952 26.78219986 -0.05181217 C30.92756462 -0.05703051 35.0729088 -0.06410917 39.21826172 -0.07543945 C43.21882072 -0.08630554 47.21935993 -0.09228475 51.21993256 -0.09487724 C52.74614524 -0.09672477 54.27235684 -0.1003325 55.7985611 -0.10573006 C57.93636923 -0.11298985 60.07409559 -0.11398885 62.21191406 -0.11352539 C63.4288092 -0.115746 64.64570435 -0.11796661 65.8994751 -0.12025452 C68.48962375 -0.01979505 70.52674986 0.33116751 73 1 C73.73694092 0.84668213 74.47388184 0.69336426 75.2331543 0.53540039 C78.95899007 -0.18557004 82.51404321 0.16138781 86.26953125 0.43359375 C98.07600942 1.16970498 109.86282782 1.11071199 121.6875 1.0625 C123.86523333 1.05746834 126.0429678 1.05290842 128.22070312 1.04882812 C133.4804943 1.03796971 138.74024154 1.02136715 144 1 C144 1.99 144 2.98 144 4 C125.83258081 3.89275776 107.66520467 3.77999576 89.49786091 3.66066074 C81.06247138 3.6053803 72.62707763 3.55190684 64.19165039 3.50268555 C56.83942644 3.45978024 49.48723297 3.41348629 42.1350562 3.36312145 C38.2420738 3.33657162 34.34909724 3.31171991 30.45607948 3.29092598 C26.79126329 3.27129742 23.12650485 3.24713528 19.46174049 3.21950912 C17.47674133 3.205722 15.49171067 3.19673013 13.50668335 3.18788147 C12.32182846 3.17809265 11.13697357 3.16830383 9.91621399 3.15821838 C8.88841481 3.15176583 7.86061563 3.14531328 6.80167103 3.1386652 C4.10285192 3.00509053 1.62957755 2.60499655 -1 2 C-0.67 1.34 -0.34 0.68 0 0 Z " fill="#DB94B5" transform="translate(93,278)"/>
<path d="M0 0 C1.23556641 0.01740234 1.23556641 0.01740234 2.49609375 0.03515625 C3.32238281 0.04417969 4.14867187 0.05320313 5 0.0625 C5.63808594 0.07410156 6.27617187 0.08570313 6.93359375 0.09765625 C6.93359375 0.42765625 6.93359375 0.75765625 6.93359375 1.09765625 C2.47859375 1.59265625 2.47859375 1.59265625 -2.06640625 2.09765625 C-2.06640625 20.24765625 -2.06640625 38.39765625 -2.06640625 57.09765625 C1.23359375 57.42765625 4.53359375 57.75765625 7.93359375 58.09765625 C8.26359375 50.83765625 8.59359375 43.57765625 8.93359375 36.09765625 C9.26359375 36.09765625 9.59359375 36.09765625 9.93359375 36.09765625 C9.96270696 39.18096965 9.98043057 42.2642475 9.99609375 45.34765625 C10.00447266 46.22035156 10.01285156 47.09304687 10.02148438 47.9921875 C10.02470703 48.83652344 10.02792969 49.68085937 10.03125 50.55078125 C10.03648682 51.32583008 10.04172363 52.10087891 10.04711914 52.89941406 C9.93359375 55.09765625 9.93359375 55.09765625 8.93359375 59.09765625 C4.64359375 59.09765625 0.35359375 59.09765625 -4.06640625 59.09765625 C-4.25624856 23.74025668 -4.25624856 23.74025668 -3.62890625 9.91015625 C-3.57005249 8.56026611 -3.57005249 8.56026611 -3.51000977 7.18310547 C-3.1434364 0.1485556 -3.1434364 0.1485556 0 0 Z " fill="#C170A1" transform="translate(302.06640625,43.90234375)"/>
<path d="M0 0 C3.375 -0.125 3.375 -0.125 7 0 C7.66 0.66 8.32 1.32 9 2 C8.21625 2.53625 7.4325 3.0725 6.625 3.625 C3.66573701 6.30242842 2.95391744 8.18433025 2 12 C-1.63 12 -5.26 12 -9 12 C-8 7 -8 7 -6.40625 5.48828125 C-5.46265625 4.90626953 -5.46265625 4.90626953 -4.5 4.3125 C-1.72985049 2.64721813 -1.72985049 2.64721813 0 0 Z " fill="#E86697" transform="translate(182,91)"/>
<path d="M0 0 C0.33 0.99 0.66 1.98 1 3 C2.13707397 2.99214478 2.13707397 2.99214478 3.29711914 2.98413086 C19.89819051 2.8852479 36.42006146 3.07821131 53 4 C53 4.33 53 4.66 53 5 C45.47437262 5.02545425 37.94875644 5.04291059 30.4230957 5.05493164 C27.86547429 5.05994563 25.30785573 5.06675848 22.75024414 5.07543945 C19.06395768 5.08763382 15.37770928 5.09325779 11.69140625 5.09765625 C10.55667374 5.10281754 9.42194122 5.10797882 8.25282288 5.11329651 C2.0808998 5.11372797 -3.88077806 4.81533201 -10 4 C-10.33 4.99 -10.66 5.98 -11 7 C-11.33 5.68 -11.66 4.36 -12 3 C-8.04 3 -4.08 3 0 3 C0 2.01 0 1.02 0 0 Z " fill="#8BBEA8" transform="translate(171,102)"/>
<path d="M0 0 C0.99 0.66 1.98 1.32 3 2 C-2.79428085 9.20518139 -8.74795407 16.18630455 -15 23 C-15.33 22.34 -15.66 21.68 -16 21 C-17.32 21.33 -18.64 21.66 -20 22 C-20.33 20.68 -20.66 19.36 -21 18 C-19.35 17.01 -17.7 16.02 -16 15 C-16 15.99 -16 16.98 -16 18 C-15.01 17.67 -14.02 17.34 -13 17 C-12.67 16.01 -12.34 15.02 -12 14 C-11.02351983 12.97702078 -10.01868662 11.98095748 -9 11 C-8.360625 10.154375 -7.72125 9.30875 -7.0625 8.4375 C-5 6 -5 6 -2.8125 4.9375 C-0.77959708 4.1481623 -0.77959708 4.1481623 -0.25 1.875 C-0.1675 1.25625 -0.085 0.6375 0 0 Z " fill="#E8EEFC" transform="translate(231,140)"/>
<path d="M0 0 C2.89168064 2.88598835 4.27251682 4.93926601 4.390625 8.98828125 C4.36428842 10.430209 4.3169454 11.8718864 4.25 13.3125 C4.23195313 14.05306641 4.21390625 14.79363281 4.1953125 15.55664062 C4.14847337 17.3716571 4.07673789 19.18600166 4 21 C3.67 21 3.34 21 3 21 C2.93941406 19.92878906 2.87882812 18.85757813 2.81640625 17.75390625 C2.73201463 16.35675609 2.64736594 14.95962143 2.5625 13.5625 C2.52318359 12.85544922 2.48386719 12.14839844 2.44335938 11.41992188 C2.52375562 7.91309581 2.52375562 7.91309581 1 5 C-0.84031989 4.87662826 -2.68529411 4.82208692 -4.52954102 4.79467773 C-5.71068985 4.77473251 -6.89183868 4.75478729 -8.10877991 4.73423767 C-9.3941716 4.71752518 -10.67956329 4.70081268 -12.00390625 4.68359375 C-13.31205795 4.66281265 -14.62020966 4.64203156 -15.96800232 4.62062073 C-19.45155447 4.565337 -22.9351666 4.51595569 -26.41882324 4.46777344 C-29.9713273 4.41760426 -33.5237439 4.36189433 -37.07617188 4.30664062 C-44.05070546 4.19898209 -51.02531798 4.09755433 -58 4 C-58 3.67 -58 3.34 -58 3 C-38.86 3 -19.72 3 0 3 C0 2.01 0 1.02 0 0 Z " fill="#9191C0" transform="translate(329,100)"/>
<path d="M0 0 C2.64 0.33 5.28 0.66 8 1 C7.01 1.495 7.01 1.495 6 2 C6.31828818 6.05817431 6.52419675 8.41224304 9.125 11.625 C11 14 11 14 10.75 16.8125 C10.5025 17.534375 10.255 18.25625 10 19 C9.7525 18.46375 9.505 17.9275 9.25 17.375 C6.33467862 11.83588938 4.15478865 8.01429447 -2 6 C-5.68211791 5.77145475 -9.31662475 5.82304069 -13 6 C-12.67 5.34 -12.34 4.68 -12 4 C-9.05859375 3.5859375 -9.05859375 3.5859375 -5.4375 3.375 C-4.23996094 3.30023438 -3.04242188 3.22546875 -1.80859375 3.1484375 C-0.88175781 3.09945312 0.04507813 3.05046875 1 3 C0.67 2.01 0.34 1.02 0 0 Z " fill="#EFECF8" transform="translate(192,85)"/>
<path d="M0 0 C8.58 0 17.16 0 26 0 C24.30577667 5.08266999 23.7316597 6.76969884 20.375 10.375 C19.74335938 11.06335938 19.11171875 11.75171875 18.4609375 12.4609375 C17.73777344 13.22277344 17.73777344 13.22277344 17 14 C16.67 13.34 16.34 12.68 16 12 C17.4375 9.375 17.4375 9.375 19 7 C18.67 6.67 18.34 6.34 18 6 C18 4.35 18 2.7 18 1 C12.06 1 6.12 1 0 1 C0 0.67 0 0.34 0 0 Z " fill="#80D4B3" transform="translate(224,106)"/>
<path d="M0 0 C-1.23789629 3.71368887 -2.85224877 4.77354181 -6 7 C-6.66 7 -7.32 7 -8 7 C-8.33 8.65 -8.66 10.3 -9 12 C-8.3915625 11.98839844 -7.783125 11.97679688 -7.15625 11.96484375 C1.26338399 11.87817105 9.60668764 12.4102566 18 13 C18.33 12.34 18.66 11.68 19 11 C19 11.99 19 12.98 19 14 C9.43 14 -0.14 14 -10 14 C-10 7.20496894 -10 7.20496894 -6.6875 3.625 C-6.07261719 2.93664062 -5.45773438 2.24828125 -4.82421875 1.5390625 C-3 0 -3 0 0 0 Z " fill="#CB7E99" transform="translate(182,91)"/>
<path d="M0 0 C0.763125 0.20625 1.52625 0.4125 2.3125 0.625 C3 3.4375 3 3.4375 3.3125 6.625 C2.125 8.5625 2.125 8.5625 0.3125 9.625 C-2.66147616 9.35463853 -3.54196026 8.77053974 -5.6875 6.625 C-6 4.125 -6 4.125 -5.6875 1.625 C-2.6875 -0.375 -2.6875 -0.375 0 0 Z " fill="#F6A3C3" transform="translate(134.6875,161.375)"/>
<path d="M0 0 C1 1 1 1 1.25 3.4375 C1.1675 4.283125 1.085 5.12875 1 6 C-2 8 -2 8 -4.625 7.6875 C-7 7 -7 7 -8 6 C-8.04080783 4.00041636 -8.04254356 1.99954746 -8 0 C-4.69676014 -1.10107995 -3.29495231 -0.86709271 0 0 Z " fill="#F3A6C5" transform="translate(119,150)"/>
<path d="M0 0 C0 1.32 0 2.64 0 4 C-0.99 4.495 -0.99 4.495 -2 5 C-2.33 5.99 -2.66 6.98 -3 8 C3.6 8 10.2 8 17 8 C17 8.33 17 8.66 17 9 C8.09 9 -0.82 9 -10 9 C-4.6 0 -4.6 0 0 0 Z " fill="#8776AD" transform="translate(278,94)"/>
<path d="M0 0 C2.375 -0.125 2.375 -0.125 5 0 C7 2 7 2 7.25 4.5 C7 7 7 7 5 9 C1.875 8.625 1.875 8.625 -1 8 C-0.67 5.36 -0.34 2.72 0 0 Z " fill="#F4A7C5" transform="translate(146,148)"/>
<path d="M0 0 C6.6 0 13.2 0 20 0 C20 0.66 20 1.32 20 2 C14.72 2 9.44 2 4 2 C4.66 5.3 5.32 8.6 6 12 C0 4 0 4 0 0 Z " fill="#D378A0" transform="translate(72,141)"/>
<path d="M0 0 C2 1 2 1 2 1 Z M-2 1 C0 2 0 2 0 2 Z M-2 3 C-4.29492188 4.85546875 -4.29492188 4.85546875 -6.58984375 6.7109375 C-8.13266437 7.9666391 -8.13266437 7.9666391 -9 10 C-10.299375 9.8453125 -10.299375 9.8453125 -11.625 9.6875 C-16.23756587 10.11458943 -17.69294459 11.85042342 -21 15 C-21 13.68 -21 12.36 -21 11 C-18.40251918 9.4666195 -15.79812104 7.94820332 -13.1875 6.4375 C-12.44951172 5.99986328 -11.71152344 5.56222656 -10.95117188 5.11132812 C-10.23896484 4.70205078 -9.52675781 4.29277344 -8.79296875 3.87109375 C-8.1383667 3.48880615 -7.48376465 3.10651855 -6.80932617 2.71264648 C-5 2 -5 2 -2 3 Z " fill="#DAE4F9" transform="translate(201,261)"/>
<path d="M0 0 C2.1519437 3.22791555 2.20086443 4.28400809 2 8 C1.34 8 0.68 8 0 8 C-0.33 8.99 -0.66 9.98 -1 11 C-6.34965035 11.35664336 -6.34965035 11.35664336 -8.9375 9.9375 C-10.64787795 6.81857551 -9.80513863 4.34442199 -9 1 C-5.95699684 -0.52150158 -3.345915 -0.23899393 0 0 Z M-8 3 C-8.5 5.5 -8.5 5.5 -8 8 C-5.31328252 10.22738107 -5.31328252 10.22738107 -2.9375 9.875 C-0.42716583 8.7413007 0.02691202 7.51381062 1 5 C-0.28965176 3.62437146 -1.62689293 2.29233607 -3 1 C-5.32357511 0.81509993 -5.32357511 0.81509993 -8 3 Z " fill="#EDD873" transform="translate(293,186)"/>
<path d="M0 0 C-1.37339641 2.95808458 -2.72563151 5.64139564 -5 8 C-7.6875 8.25 -7.6875 8.25 -10 8 C-10.1875 5.125 -10.1875 5.125 -10 2 C-6.3558226 -0.4294516 -4.28758728 -0.16179575 0 0 Z " fill="#6AC6A0" transform="translate(212,152)"/>
<path d="M0 0 C1.65 0 3.3 0 5 0 C5.185625 0.639375 5.37125 1.27875 5.5625 1.9375 C6.93435308 4.41670358 6.93435308 4.41670358 10.5625 4.6875 C11.696875 4.790625 12.83125 4.89375 14 5 C14.33 5.33 14.66 5.66 15 6 C17.32817964 6.36760731 19.6618385 6.70241581 22 7 C22 7.66 22 8.32 22 9 C22.66 9.33 23.32 9.66 24 10 C15.34361763 9.23054379 6.87641956 6.38962614 0 1 C0 0.67 0 0.34 0 0 Z " fill="#D97BA4" transform="translate(96,172)"/>
<path d="M0 0 C9.57 0 19.14 0 29 0 C29.33 1.65 29.66 3.3 30 5 C28.68 5.99 27.36 6.98 26 8 C26.33 6.02 26.66 4.04 27 2 C18.09 1.67 9.18 1.34 0 1 C0 0.67 0 0.34 0 0 Z " fill="#EDECFE" transform="translate(248,86)"/>
<path d="M0 0 C0.33 0.66 0.66 1.32 1 2 C0.57847656 2.61488281 0.15695313 3.22976562 -0.27734375 3.86328125 C-0.82519531 4.67152344 -1.37304688 5.47976562 -1.9375 6.3125 C-2.48277344 7.11300781 -3.02804688 7.91351563 -3.58984375 8.73828125 C-5.13837326 11.0258143 -5.13837326 11.0258143 -6 14 C-8.5625 15.1875 -8.5625 15.1875 -11 16 C-10.38271885 12.61638481 -9.13020282 10.47997439 -7.0625 7.75 C-6.27552734 6.69039063 -6.27552734 6.69039063 -5.47265625 5.609375 C-4.74369141 4.81273438 -4.74369141 4.81273438 -4 4 C-3.34 4 -2.68 4 -2 4 C-1.34 2.68 -0.68 1.36 0 0 Z " fill="#DAF8F8" transform="translate(240,120)"/>
<path d="M0 0 C1.4370809 -0.05422947 2.87475462 -0.09289723 4.3125 -0.125 C5.11300781 -0.14820312 5.91351563 -0.17140625 6.73828125 -0.1953125 C9 0 9 0 12 2 C9.1875 4.0625 9.1875 4.0625 6 6 C3.00306862 5.00102287 1.97290587 4.34869747 0 2 C0 1.34 0 0.68 0 0 Z " fill="#66C79E" transform="translate(161,106)"/>
<path d="M0 0 C0.33 0.66 0.66 1.32 1 2 C-0.91540866 6.9925092 -3.50655489 9.62861909 -7.6875 12.875 C-8.68136719 13.65617188 -9.67523438 14.43734375 -10.69921875 15.2421875 C-11.45847656 15.82226562 -12.21773437 16.40234375 -13 17 C-13.66 16.67 -14.32 16.34 -15 16 C-14.50628906 15.59007812 -14.01257813 15.18015625 -13.50390625 14.7578125 C-12.86324219 14.21898437 -12.22257813 13.68015625 -11.5625 13.125 C-10.92441406 12.59132812 -10.28632813 12.05765625 -9.62890625 11.5078125 C-7.89194996 10.0777243 -7.89194996 10.0777243 -7 8 C-6.34 8 -5.68 8 -5 8 C-4.731875 7.4225 -4.46375 6.845 -4.1875 6.25 C-2.98280141 3.9674132 -1.59201885 2.0262058 0 0 Z " fill="#F3E2F0" transform="translate(181,155)"/>
<path d="M0 0 C0.66 0.33 1.32 0.66 2 1 C-7.22551253 12.70615034 -7.22551253 12.70615034 -13 17 C-12.4409112 13.75728494 -11.5867822 12.06942576 -9 10 C-8.34 10 -7.68 10 -7 10 C-6.67 8.68 -6.34 7.36 -6 6 C-5.34 6 -4.68 6 -4 6 C-3.67 5.01 -3.34 4.02 -3 3 C-2.34 3 -1.68 3 -1 3 C-0.67 2.01 -0.34 1.02 0 0 Z " fill="#84D2B4" transform="translate(231,128)"/>
<path d="M0 0 C4.0174366 2.93993584 6.92802144 6.23764712 9.8125 10.25 C10.21919922 10.80429688 10.62589844 11.35859375 11.04492188 11.9296875 C12.03591711 13.28210453 13.01881466 14.64044907 14 16 C11 16 11 16 9 15 C8.54625 14.030625 8.0925 13.06125 7.625 12.0625 C6.34904306 8.90555525 6.34904306 8.90555525 3.9375 8.0625 C2 7 2 7 0.75 3.375 C0.5025 2.26125 0.255 1.1475 0 0 Z " fill="#C6F2EE" transform="translate(169,120)"/>
<path d="M0 0 C-14.25443787 7.51597633 -14.25443787 7.51597633 -19.265625 6.57421875 C-19.83796875 6.38472656 -20.4103125 6.19523438 -21 6 C-16.97896761 3.18527733 -12.87672853 1.95063195 -8.20703125 0.6484375 C-2.96870343 -0.89061103 -2.96870343 -0.89061103 0 0 Z " fill="#9CDE8F" transform="translate(301,231)"/>
<path d="M0 0 C3.96 0 7.92 0 12 0 C12 0.33 12 0.66 12 1 C8.37 1 4.74 1 1 1 C1.825 2.60875 2.65 4.2175 3.5 5.875 C6 10.75 6 10.75 6 13 C5.34 13 4.68 13 4 13 C4 12.34 4 11.68 4 11 C3.01 10.67 2.02 10.34 1 10 C0.67 6.7 0.34 3.4 0 0 Z " fill="#E8D9ED" transform="translate(71,140)"/>
<path d="M0 0 C0.33 0 0.66 0 1 0 C1 5.94 1 11.88 1 18 C-1.97 18 -4.94 18 -8 18 C-8 17.34 -8 16.68 -8 16 C-5.69 16 -3.38 16 -1 16 C-0.67 10.72 -0.34 5.44 0 0 Z " fill="#77CFE3" transform="translate(268,107)"/>
<path d="M0 0 C2.31 0 4.62 0 7 0 C6.360625 0.226875 5.72125 0.45375 5.0625 0.6875 C2.72806339 1.85250896 2.72806339 1.85250896 2.25 4.625 C2.1675 5.40875 2.085 6.1925 2 7 C3.98 7.66 5.96 8.32 8 9 C8 9.33 8 9.66 8 10 C4.05272412 10.17942163 1.4019487 10.09350689 -2 8 C-1.125 2.25 -1.125 2.25 0 0 Z " fill="#EAD869" transform="translate(298,165)"/>
<path d="M0 0 C0.66 0.33 1.32 0.66 2 1 C1.38511719 1.65355469 1.38511719 1.65355469 0.7578125 2.3203125 C-2.61090002 6.04362634 -4.78240479 9.00785965 -6 14 C-6.33 14 -6.66 14 -7 14 C-7.16666667 5.33333333 -7.16666667 5.33333333 -6 3 C-3.0625 1.1875 -3.0625 1.1875 0 0 Z " fill="#F4E0EF" transform="translate(177,91)"/>
<path d="M0 0 C2.475 0.495 2.475 0.495 5 1 C-1.10060962 4.81288101 -9.06161708 4.14454964 -16 4 C-14.91796875 2.48046875 -14.91796875 2.48046875 -13 1 C-9.86328125 0.92578125 -9.86328125 0.92578125 -6.3125 1.3125 C-5.13300781 1.43238281 -3.95351562 1.55226563 -2.73828125 1.67578125 C-1.38283203 1.83626953 -1.38283203 1.83626953 0 2 C0 1.34 0 0.68 0 0 Z " fill="#B2476D" transform="translate(230,337)"/>
<path d="M0 0 C0.66 0 1.32 0 2 0 C2.09038099 5.15171623 1.84681133 9.91913204 1 15 C0.67 15 0.34 15 0 15 C-0.33 11.7 -0.66 8.4 -1 5 C-2.98 5.99 -2.98 5.99 -5 7 C-4.21654285 5.82780457 -3.42297164 4.66236332 -2.625 3.5 C-2.18414062 2.8503125 -1.74328125 2.200625 -1.2890625 1.53125 C-0.65097656 0.77328125 -0.65097656 0.77328125 0 0 Z " fill="#C5F4F7" transform="translate(249,109)"/>
<path d="M0 0 C2.16874252 0.50603992 3.99967627 0.99983813 6 2 C5.67 3.65 5.34 5.3 5 7 C4.01 7 3.02 7 2 7 C0.5393715 4.35261084 0 3.10551666 0 0 Z " fill="#D4F0FB" transform="translate(80,163)"/>
<path d="M0 0 C0.66 0.99 1.32 1.98 2 3 C-1.47871621 4.15957207 -2.34219645 3.77456651 -5.6875 2.5625 C-6.49574219 2.27503906 -7.30398437 1.98757813 -8.13671875 1.69140625 C-8.75160156 1.46324219 -9.36648437 1.23507812 -10 1 C-10 0.67 -10 0.34 -10 0 C-6.33461636 -0.94252722 -3.63170285 -1.17784957 0 0 Z " fill="#C24773" transform="translate(159,331)"/>
<path d="M0 0 C2.64 0 5.28 0 8 0 C5.2232434 1.45148641 2.46693581 2.61908683 -0.5 3.625 C-1.62921875 4.01558594 -1.62921875 4.01558594 -2.78125 4.4140625 C-5 5 -5 5 -9 5 C-9 4.34 -9 3.68 -9 3 C-4.545 2.505 -4.545 2.505 0 2 C0 1.34 0 0.68 0 0 Z " fill="#B44A70" transform="translate(249,332)"/>
<path d="M0 0 C0.99 0 1.98 0 3 0 C2.67 2.31 2.34 4.62 2 7 C0.68 6.67 -0.64 6.34 -2 6 C-1.125 1.125 -1.125 1.125 0 0 Z " fill="#EEABC6" transform="translate(133,162)"/>
<path d="M0 0 C0.66 0.33 1.32 0.66 2 1 C-0.0068492 4.0102738 -1.60234194 5.68477753 -5 7 C-5.66 7 -6.32 7 -7 7 C-7.33 6.01 -7.66 5.02 -8 4 C-6.71349294 3.30289269 -5.42059335 2.61757124 -4.125 1.9375 C-3.40570313 1.55464844 -2.68640625 1.17179687 -1.9453125 0.77734375 C-1.30335937 0.52082031 -0.66140625 0.26429688 0 0 Z " fill="#D8E1F8" transform="translate(120,263)"/>
<path d="M0 0 C4.20763224 1.5027258 5.8027758 4.23332995 8 8 C8 8.66 8 9.32 8 10 C8.66 10 9.32 10 10 10 C9.67 10.99 9.34 11.98 9 13 C7.68227638 11.40012144 6.37098863 9.79494034 5.0625 8.1875 C4.33160156 7.29417969 3.60070312 6.40085938 2.84765625 5.48046875 C1 3 1 3 0 0 Z " fill="#D379A0" transform="translate(78,153)"/>
<path d="M0 0 C0.66 0.33 1.32 0.66 2 1 C-1.75 4 -1.75 4 -4 4 C-4.33 4.99 -4.66 5.98 -5 7 C-6.98 7.33 -8.96 7.66 -11 8 C-7.71644638 4.32241995 -4.37221763 2.18610882 0 0 Z " fill="#D9DEF8" transform="translate(107,270)"/>
<path d="M0 0 C4.5929708 3.52127761 5.11941917 7.57747597 6 13 C5.01 13.495 5.01 13.495 4 14 C3.32968281 12.0429132 2.66385317 10.08428887 2 8.125 C1.62875 7.03445312 1.2575 5.94390625 0.875 4.8203125 C0 2 0 2 0 0 Z " fill="#8A729F" transform="translate(56,229)"/>
<path d="M0 0 C3.69293736 0.6594531 4.70572579 1.52929434 8 4 C4.7 4 1.4 4 -2 4 C-1.34 2.68 -0.68 1.36 0 0 Z " fill="#EAE9FA" transform="translate(152,274)"/>
<path d="M0 0 C4 0 4 0 5.51953125 1.35546875 C9.04173544 6.34614478 9.04173544 6.34614478 8.8125 9.9375 C8.544375 10.618125 8.27625 11.29875 8 12 C7.7525 11.46375 7.505 10.9275 7.25 10.375 C5.25124749 6.57737023 3.04053995 3.04053995 0 0 Z " fill="#F6E6F4" transform="translate(194,92)"/>
<path d="M0 0 C4.23429756 1.31061591 8.07407404 2.94356259 12 5 C11.34 5.66 10.68 6.32 10 7 C9.01 6.34 8.02 5.68 7 5 C5.0103005 4.60986284 3.00980131 4.26797351 1 4 C0.67 2.68 0.34 1.36 0 0 Z " fill="#8971A0" transform="translate(267,49)"/>
<path d="M0 0 C3.12290635 0.48578543 5.99580359 0.9986012 9 2 C9 2.99 9 3.98 9 5 C9.66 5 10.32 5 11 5 C11 5.66 11 6.32 11 7 C6.89188572 5.55007731 3.53144334 3.54592427 0 1 C0 0.67 0 0.34 0 0 Z " fill="#BA4B71" transform="translate(117,314)"/>
<path d="M0 0 C0.66 0.33 1.32 0.66 2 1 C1.814375 1.61875 1.62875 2.2375 1.4375 2.875 C0.76313824 5.04160178 0.76313824 5.04160178 2 7 C-0.97 6.01 -3.94 5.02 -7 4 C-3 3 -3 3 -1 4 C-0.67 2.68 -0.34 1.36 0 0 Z " fill="#BF4972" transform="translate(142,322)"/>
<path d="M0 0 C3 1 3 1 4.16796875 2.77734375 C4.50441406 3.49019531 4.84085937 4.20304688 5.1875 4.9375 C5.70376953 6.00291016 5.70376953 6.00291016 6.23046875 7.08984375 C7 9 7 9 7 11 C6.34 11 5.68 11 5 11 C3.35 7.37 1.7 3.74 0 0 Z " fill="#8A749C" transform="translate(61,245)"/>
<path d="M0 0 C0.66 0.33 1.32 0.66 2 1 C1.34 3.64 0.68 6.28 0 9 C-1.32 8.34 -2.64 7.68 -4 7 C-3.67 6.34 -3.34 5.68 -3 5 C-2.34 5 -1.68 5 -1 5 C-0.67 3.35 -0.34 1.7 0 0 Z " fill="#8A709F" transform="translate(349,231)"/>
<path d="M0 0 C3.73639216 1.24546405 4.18756513 2.63404953 6 6 C5.01 6 4.02 6 3 6 C2.67 5.01 2.34 4.02 2 3 C0.35 3.66 -1.3 4.32 -3 5 C-2.01 3.35 -1.02 1.7 0 0 Z " fill="#8F7FAB" transform="translate(189,160)"/>
<path d="M0 0 C1.98 0 3.96 0 6 0 C5.34 1.65 4.68 3.3 4 5 C3.01 5 2.02 5 1 5 C0.67 3.35 0.34 1.7 0 0 Z " fill="#72D4AA" transform="translate(244,107)"/>
<path d="M0 0 C2.31 1.98 4.62 3.96 7 6 C6.34 6.66 5.68 7.32 5 8 C3.0625 7.375 3.0625 7.375 1 6 C0.25 2.875 0.25 2.875 0 0 Z " fill="#8A71A0" transform="translate(312,80)"/>
<path d="M0 0 C0.33 0.66 0.66 1.32 1 2 C0.34 2 -0.32 2 -1 2 C-1.226875 2.804375 -1.45375 3.60875 -1.6875 4.4375 C-2.3371875 5.7059375 -2.3371875 5.7059375 -3 7 C-5.625 7.8125 -5.625 7.8125 -8 8 C-6.71937515 6.2925002 -5.38232443 4.62626404 -4 3 C-3.34 3 -2.68 3 -2 3 C-2 2.34 -2 1.68 -2 1 C-1.34 0.67 -0.68 0.34 0 0 Z " fill="#88719F" transform="translate(106,70)"/>
<path d="M0 0 C0.66 0.99 1.32 1.98 2 3 C1.01 4.485 1.01 4.485 0 6 C-2.625 6.1875 -2.625 6.1875 -5 6 C-3.35 4.02 -1.7 2.04 0 0 Z " fill="#917FB0" transform="translate(214,165)"/>
<path d="M0 0 C1.48828125 1.11328125 1.48828125 1.11328125 3 3 C3.29296875 5.91796875 3.29296875 5.91796875 3.1875 9.1875 C3.16042969 10.27417969 3.13335937 11.36085937 3.10546875 12.48046875 C3.07066406 13.31191406 3.03585938 14.14335937 3 15 C2.67 15 2.34 15 2 15 C1.93941406 14.41992188 1.87882813 13.83984375 1.81640625 13.2421875 C1.33983439 8.79907137 0.78991334 4.40094577 0 0 Z " fill="#9382AE" transform="translate(195,166)"/>
<path d="M0 0 C0.66 0.33 1.32 0.66 2 1 C1.02433888 2.16959987 0.044375 3.33561177 -0.9375 4.5 C-1.48277344 5.1496875 -2.02804688 5.799375 -2.58984375 6.46875 C-3.05519531 6.9740625 -3.52054688 7.479375 -4 8 C-4.33 8 -4.66 8 -5 8 C-5.3125 5.6875 -5.3125 5.6875 -5 3 C-2.625 1.125 -2.625 1.125 0 0 Z " fill="#81D1B2" transform="translate(238,120)"/>
<path d="M0 0 C0 0.66 0 1.32 0 2 C-1.98 2.33 -3.96 2.66 -6 3 C-6 2.01 -6 1.02 -6 0 C-2.25 -1.125 -2.25 -1.125 0 0 Z M-7 3 C-6.67 3.99 -6.34 4.98 -6 6 C-6.99 6 -7.98 6 -9 6 C-9 5.34 -9 4.68 -9 4 C-8.34 3.67 -7.68 3.34 -7 3 Z " fill="#CEE8F1" transform="translate(163,110)"/>
<path d="M0 0 C0.33 0 0.66 0 1 0 C1.33 3.96 1.66 7.92 2 12 C1.01 12.33 0.02 12.66 -1 13 C-0.67 8.71 -0.34 4.42 0 0 Z " fill="#8B71A4" transform="translate(210,248)"/>
<path d="M0 0 C0.66 0 1.32 0 2 0 C2 0.66 2 1.32 2 2 C2.66 2 3.32 2 4 2 C3.34 3.98 2.68 5.96 2 8 C-0.14720899 5.85279101 -0.5434221 4.92209857 -1 2 C-0.67 1.34 -0.34 0.68 0 0 Z " fill="#8A6CA1" transform="translate(340,248)"/>
<path d="M0 0 C0.33 0.99 0.66 1.98 1 3 C-0.14453125 4.82421875 -0.14453125 4.82421875 -1.8125 6.6875 C-2.35519531 7.31011719 -2.89789063 7.93273437 -3.45703125 8.57421875 C-5 10 -5 10 -7 10 C-5.33248852 6.05860922 -2.77289351 3.2107188 0 0 Z " fill="#886F9D" transform="translate(90,85)"/>
<path d="M0 0 C0.66 0.33 1.32 0.66 2 1 C1.67 1.66 1.34 2.32 1 3 C0.34 3 -0.32 3 -1 3 C-1.28875 3.639375 -1.5775 4.27875 -1.875 4.9375 C-3 7 -3 7 -5 8 C-4.67 6.02 -4.34 4.04 -4 2 C-2.68 2 -1.36 2 0 2 C0 1.34 0 0.68 0 0 Z " fill="#DC8BAC" transform="translate(175,160)"/>
<path d="M0 0 C0.33 0.66 0.66 1.32 1 2 C-0.98 4.97 -0.98 4.97 -3 8 C-3.99 7.67 -4.98 7.34 -6 7 C-5.34 6.01 -4.68 5.02 -4 4 C-3.34 4 -2.68 4 -2 4 C-1.34 2.68 -0.68 1.36 0 0 Z " fill="#CEF7ED" transform="translate(240,120)"/>
<path d="M0 0 C5.445 1.485 5.445 1.485 11 3 C9.02 3.99 9.02 3.99 7 5 C3.25 3.625 3.25 3.625 0 2 C0 1.34 0 0.68 0 0 Z " fill="#87709B" transform="translate(246,41)"/>
<path d="M0 0 C0.93065133 2.60582371 1.14917407 3.64198224 0.0625 6.25 C-0.4634375 7.11625 -0.4634375 7.11625 -1 8 C-1.99 8 -2.98 8 -4 8 C-2.87548273 5.0280615 -1.77706209 2.66559313 0 0 Z " fill="#8D749F" transform="translate(77,101)"/>
<path d="M0 0 C2.91517292 1.07401108 4.77810176 1.77810176 7 4 C6.01 4.495 6.01 4.495 5 5 C2.375 4.0625 2.375 4.0625 0 3 C0 2.01 0 1.02 0 0 Z " fill="#89719F" transform="translate(282,57)"/>
<path d="M0 0 C-5.445 1.485 -5.445 1.485 -11 3 C-10.67 2.01 -10.34 1.02 -10 0 C-3.375 -1.125 -3.375 -1.125 0 0 Z " fill="#CFE170" transform="translate(304,229)"/>
</svg>
